<?xml version="1.0"?>
<svg height="300" version="1.1" width="600" xmlns:xlink="http://www.w3.org/1999/xlink" xmlns="http://www.w3.org/2000/svg"><rect fill="#0336ff" height="20" width="10" x="50.00" y="280.00" /><rect fill="#0539ff" height="20" width="10" x="55.25" y="280.00" /><rect fill="#083dff" height="20" width="10" x="60.51" y="280.00" /><rect fill="#0b41ff" height="20" width="10" x="65.76" y="280.00" /><rect fill="#0e45ff" height="20" width="10" x="71.01" y="280.00" /><rect fill="#1249ff" height="20" width="10" x="76.26" y="280.00" /><rect fill="#154eff" height="20" width="10" x="81.52" y="280.00" /><rect fill="#1953ff" height="20" width="10" x="86.77" y="280.00" /><rect fill="#1d58ff" height="20" width="10" x="92.02" y="280.00" /><rect fill="#215dff" height="20" width="10" x="97.27" y="280.00" /><rect fill="#2562ff" height="20" width="10" x="102.53" y="280.00" /><rect fill="#2967ff" height="20" width="10" x="107.78" y="280.00" /><rect fill="#2e6cff" height="20" width="10" x="113.03" y="280.00" /><rect fill="#3272ff" height="20" width="10" x="118.28" y="280.00" /><rect fill="#3777ff" height="20" width="10" x="123.54" y="280.00" /><rect fill="#3c7dff" height="20" width="10" x="128.79" y="280.00" /><rect fill="#4082ff" height="20" width="10" x="134.04" y="280.00" /><rect fill="#4688ff" height="20" width="10" x="139.29" y="280.00" /><rect fill="#4b8eff" height="20" width="10" x="144.55" y="280.00" /><rect fill="#5093ff" height="20" width="10" x="149.80" y="280.00" /><rect fill="#5599ff" height="20" width="10" x="155.05" y="280.00" /><rect fill="#5b9fff" height="20" width="10" x="160.30" y="280.00" /><rect fill="#60a4ff" height="20" width="10" x="165.56" y="280.00" /><rect fill="#66aaff" height="20" width="10" x="170.81" y="280.00" /><rect fill="#6bafff" height="20" width="10" x="176.06" y="280.00" /><rect fill="#71b5ff" height="20" width="10" x="181.31" y="280.00" /><rect fill="#77baff" height="20" width="10" x="186.57" y="280.00" /><rect fill="#77baff" height="20" width="10" x="191.82" y="280.00" /><rect fill="#83c4ff" height="20" width="10" x="197.07" y="280.00" /><rect fill="#89c9ff" height="20" width="10" x="202.32" y="280.00" /><rect fill="#8fceff" height="20" width="10" x="207.58" y="280.00" /><rect fill="#95d2ff" height="20" width="10" x="212.83" y="280.00" /><rect fill="#9bd7ff" height="20" width="10" x="218.08" y="280.00" /><rect fill="#a1dbff" height="20" width="10" x="223.33" y="280.00" /><rect fill="#a7dfff" height="20" width="10" x="228.59" y="280.00" /><rect fill="#ade3ff" height="20" width="10" x="233.84" y="280.00" /><rect fill="#b3e7ff" height="20" width="10" x="239.09" y="280.00" /><rect fill="#b9eaff" height="20" width="10" x="244.34" y="280.00" /><rect fill="#bfedff" height="20" width="10" x="249.60" y="280.00" /><rect fill="#c5f0ff" height="20" width="10" x="254.85" y="280.00" /><rect fill="#cbf3ff" height="20" width="10" x="260.10" y="280.00" /><rect fill="#d1f5ff" height="20" width="10" x="265.35" y="280.00" /><rect fill="#d7f7ff" height="20" width="10" x="270.61" y="280.00" /><rect fill="#dcf9ff" height="20" width="10" x="275.86" y="280.00" /><rect fill="#e2fbff" height="20" width="10" x="281.11" y="280.00" /><rect fill="#e8fcff" height="20" width="10" x="286.36" y="280.00" /><rect fill="#edfdff" height="20" width="10" x="291.62" y="280.00" /><rect fill="#f3feff" height="20" width="10" x="296.87" y="280.00" /><rect fill="#f8feff" height="20" width="10" x="302.12" y="280.00" /><rect fill="#fefeff" height="20" width="10" x="307.37" y="280.00" /><rect fill="#fffefc" height="20" width="10" x="312.63" y="280.00" /><rect fill="#fffef6" height="20" width="10" x="317.88" y="280.00" /><rect fill="#fffdf1" height="20" width="10" x="323.13" y="280.00" /><rect fill="#fffceb" height="20" width="10" x="328.38" y="280.00" /><rect fill="#fffceb" height="20" width="10" x="333.64" y="280.00" /><rect fill="#fffae0" height="20" width="10" x="338.89" y="280.00" /><rect fill="#fff8da" height="20" width="10" x="344.14" y="280.00" /><rect fill="#fff6d4" height="20" width="10" x="349.39" y="280.00" /><rect fill="#fff3ce" height="20" width="10" x="354.65" y="280.00" /><rect fill="#fff3ce" height="20" width="10" x="359.90" y="280.00" /><rect fill="#ffeec2" height="20" width="10" x="365.15" y="280.00" /><rect fill="#ffebbc" height="20" width="10" x="370.40" y="280.00" /><rect fill="#ffe7b6" height="20" width="10" x="375.66" y="280.00" /><rect fill="#ffe4b0" height="20" width="10" x="380.91" y="280.00" /><rect fill="#ffe0aa" height="20" width="10" x="386.16" y="280.00" /><rect fill="#ffdca4" height="20" width="10" x="391.41" y="280.00" /><rect fill="#ffd89e" height="20" width="10" x="396.67" y="280.00" /><rect fill="#ffd498" height="20" width="10" x="401.92" y="280.00" /><rect fill="#ffcf92" height="20" width="10" x="407.17" y="280.00" /><rect fill="#ffca8c" height="20" width="10" x="412.42" y="280.00" /><rect fill="#ffc586" height="20" width="10" x="417.68" y="280.00" /><rect fill="#ffc080" height="20" width="10" x="422.93" y="280.00" /><rect fill="#ffbb7a" height="20" width="10" x="428.18" y="280.00" /><rect fill="#ffb674" height="20" width="10" x="433.43" y="280.00" /><rect fill="#ffb16e" height="20" width="10" x="438.69" y="280.00" /><rect fill="#ffab69" height="20" width="10" x="443.94" y="280.00" /><rect fill="#ffa663" height="20" width="10" x="449.19" y="280.00" /><rect fill="#ffa05e" height="20" width="10" x="454.44" y="280.00" /><rect fill="#ff9a58" height="20" width="10" x="459.70" y="280.00" /><rect fill="#ff9553" height="20" width="10" x="464.95" y="280.00" /><rect fill="#ff8f4e" height="20" width="10" x="470.20" y="280.00" /><rect fill="#ff8a49" height="20" width="10" x="475.45" y="280.00" /><rect fill="#ff8444" height="20" width="10" x="480.71" y="280.00" /><rect fill="#ff7e3f" height="20" width="10" x="485.96" y="280.00" /><rect fill="#ff793a" height="20" width="10" x="491.21" y="280.00" /><rect fill="#ff7335" height="20" width="10" x="496.46" y="280.00" /><rect fill="#ff6e31" height="20" width="10" x="501.72" y="280.00" /><rect fill="#ff682c" height="20" width="10" x="506.97" y="280.00" /><rect fill="#ff6328" height="20" width="10" x="512.22" y="280.00" /><rect fill="#ff5e24" height="20" width="10" x="517.47" y="280.00" /><rect fill="#ff5920" height="20" width="10" x="522.73" y="280.00" /><rect fill="#ff541c" height="20" width="10" x="527.98" y="280.00" /><rect fill="#ff4f19" height="20" width="10" x="533.23" y="280.00" /><rect fill="#ff4b15" height="20" width="10" x="538.48" y="280.00" /><rect fill="#ff4612" height="20" width="10" x="543.74" y="280.00" /><rect fill="#ff420f" height="20" width="10" x="548.99" y="280.00" /><rect fill="#ff3e0c" height="20" width="10" x="554.24" y="280.00" /><rect fill="#ff3a09" height="20" width="10" x="559.49" y="280.00" /><rect fill="#ff3706" height="20" width="10" x="564.75" y="280.00" /><rect fill="#ff3304" height="20" width="10" x="570.00" y="280.00" /><g><g stroke-dasharray="1 1" stroke="#ccc"><line x1="116.25" x2="116.25" y1="250.00" y2="20.00" /><line x1="182.50" x2="182.50" y1="250.00" y2="20.00" /><line x1="248.75" x2="248.75" y1="250.00" y2="20.00" /><line x1="381.25" x2="381.25" y1="250.00" y2="20.00" /><line x1="447.50" x2="447.50" y1="250.00" y2="20.00" /><line x1="513.75" x2="513.75" y1="250.00" y2="20.00" /><line x1="50.00" x2="50.00" y1="250.00" y2="20.00" /><line x1="315.00" x2="315.00" y1="250.00" y2="20.00" /><line x1="580.00" x2="580.00" y1="250.00" y2="20.00" /><line x1="50.00" x2="580.00" y1="227.00" y2="227.00" /><line x1="50.00" x2="580.00" y1="181.00" y2="181.00" /><line x1="50.00" x2="580.00" y1="135.00" y2="135.00" /><line x1="50.00" x2="580.00" y1="112.00" y2="112.00" /><line x1="50.00" x2="580.00" y1="89.00" y2="89.00" /><line x1="50.00" x2="580.00" y1="66.00" y2="66.00" /><line x1="50.00" x2="580.00" y1="43.00" y2="43.00" /><line x1="50.00" x2="580.00" y1="20.00" y2="20.00" /><line x1="50.00" x2="580.00" y1="250.00" y2="250.00" /><line x1="50.00" x2="580.00" y1="204.00" y2="204.00" /><line x1="50.00" x2="580.00" y1="158.00" y2="158.00" /><line x1="50.00" x2="580.00" y1="112.00" y2="112.00" /><line x1="50.00" x2="580.00" y1="66.00" y2="66.00" /><line x1="50.00" x2="580.00" y1="20.00" y2="20.00" /></g><polyline fill="none" points="50.00,247.62 55.35,245.22 60.71,242.66 66.06,239.94 71.41,237.07 76.77,234.04 82.12,230.87 87.47,227.55 92.83,224.10 98.18,220.50 103.54,216.77 108.89,212.92 114.24,208.93 119.60,204.83 124.95,200.61 130.30,196.28 135.66,191.84 141.01,187.31 146.36,182.67 151.72,177.94 157.07,173.13 162.42,168.23 167.78,163.26 173.13,158.21 178.48,153.10 183.84,147.93 189.19,142.71 194.55,137.44 199.90,132.12 205.25,126.77 210.61,121.39 215.96,115.98 221.31,110.56 226.67,105.12 232.02,99.67 237.37,94.22 242.73,88.77 248.08,83.34 253.43,77.92 258.79,72.52 264.14,67.15 269.49,61.82 274.85,56.52 280.20,51.27 285.56,46.07 290.91,40.93 296.26,35.85 301.62,30.84 306.97,25.90 312.32,21.04 317.68,20.00 323.03,20.00 328.38,20.00 333.74,20.00 339.09,20.00 344.44,20.00 349.80,20.00 355.15,20.00 360.51,20.00 365.86,20.00 371.21,20.00 376.57,20.00 381.92,20.00 387.27,20.00 392.63,20.00 397.98,20.00 403.33,20.00 408.69,20.00 414.04,20.00 419.39,20.00 424.75,20.00 430.10,20.00 435.45,20.00 440.81,20.00 446.16,20.00 451.52,20.00 456.87,20.00 462.22,20.00 467.58,20.00 472.93,20.00 478.28,20.00 483.64,20.00 488.99,20.00 494.34,20.00 499.70,20.00 505.05,20.00 510.40,20.00 515.76,20.00 521.11,20.00 526.46,20.00 531.82,20.00 537.17,20.00 542.53,20.00 547.88,20.00 553.23,20.00 558.59,20.00 563.94,20.00 569.29,20.00 574.65,20.00 580.00,20.00" stroke="red" /><polyline fill="none" points="50.00,201.57 55.35,198.38 60.71,195.00 66.06,191.42 71.41,187.67 76.77,183.74 82.12,179.65 87.47,175.41 92.83,171.03 98.18,166.52 103.54,161.90 108.89,157.17 114.24,152.35 119.60,147.45 124.95,142.48 130.30,137.45 135.66,132.38 141.01,127.29 146.36,122.18 151.72,117.06 157.07,111.96 162.42,106.88 167.78,101.84 173.13,96.85 178.48,91.92 183.84,87.06 189.19,82.30 194.55,77.63 199.90,73.08 205.25,68.65 210.61,64.35 215.96,60.21 221.31,56.22 226.67,52.39 232.02,48.75 237.37,45.29 242.73,42.02 248.08,38.97 253.43,36.12 258.79,33.49 264.14,31.09 269.49,28.92 274.85,26.99 280.20,25.30 285.56,23.86 290.91,22.67 296.26,21.73 301.62,21.05 306.97,20.63 312.32,20.46 317.68,20.56 323.03,20.91 328.38,21.53 333.74,22.40 339.09,23.53 344.44,24.90 349.80,26.53 355.15,28.40 360.51,30.51 365.86,32.85 371.21,35.42 376.57,38.21 381.92,41.22 387.27,44.43 392.63,47.84 397.98,51.44 403.33,55.21 408.69,59.16 414.04,63.27 419.39,67.53 424.75,71.92 430.10,76.45 435.45,81.09 440.81,85.83 446.16,90.66 451.52,95.57 456.87,100.55 462.22,105.58 467.58,110.65 472.93,115.75 478.28,120.86 483.64,125.97 488.99,131.08 494.34,136.15 499.70,141.19 505.05,146.17 510.40,151.09 515.76,155.94 521.11,160.69 526.46,165.34 531.82,169.88 537.17,174.30 542.53,178.57 547.88,182.70 553.23,186.67 558.59,190.47 563.94,194.10 569.29,197.53 574.65,200.77 580.00,203.80" stroke="green" /><polyline fill="none" points="50.00,20.00 55.35,20.00 60.71,20.00 66.06,20.00 71.41,20.00 76.77,20.00 82.12,20.00 87.47,20.00 92.83,20.00 98.18,20.00 103.54,20.00 108.89,20.00 114.24,20.00 119.60,20.00 124.95,20.00 130.30,20.00 135.66,20.00 141.01,20.00 146.36,20.00 151.72,20.00 157.07,20.00 162.42,20.00 167.78,20.00 173.13,20.00 178.48,20.00 183.84,20.00 189.19,20.00 194.55,20.00 199.90,20.00 205.25,20.00 210.61,20.00 215.96,20.00 221.31,20.00 226.67,20.00 232.02,20.00 237.37,20.00 242.73,20.00 248.08,20.00 253.43,20.00 258.79,20.00 264.14,20.00 269.49,20.00 274.85,20.00 280.20,20.00 285.56,20.00 290.91,20.00 296.26,20.00 301.62,20.00 306.97,20.00 312.32,20.00 317.68,22.74 323.03,27.72 328.38,32.77 333.74,37.88 339.09,43.06 344.44,48.29 349.80,53.57 355.15,58.89 360.51,64.25 365.86,69.65 371.21,75.07 376.57,80.51 381.92,85.96 387.27,91.42 392.63,96.89 397.98,102.35 403.33,107.80 408.69,113.24 414.04,118.65 419.39,124.04 424.75,129.40 430.10,134.71 435.45,139.98 440.81,145.20 446.16,150.37 451.52,155.47 456.87,160.50 462.22,165.47 467.58,170.35 472.93,175.15 478.28,179.86 483.64,184.48 488.99,189.00 494.34,193.41 499.70,197.72 505.05,201.91 510.40,205.98 515.76,209.94 521.11,213.76 526.46,217.46 531.82,221.02 537.17,224.44 542.53,227.72 547.88,230.85 553.23,233.83 558.59,236.66 563.94,239.33 569.29,241.85 574.65,244.20 580.00,246.39" stroke="blue" /><g stroke="black"><line x1="50.00" x2="50.00" y1="250.00" y2="260.00" /><line x1="315.00" x2="315.00" y1="250.00" y2="260.00" /><line x1="580.00" x2="580.00" y1="250.00" y2="260.00" /><line x1="116.25" x2="116.25" y1="250.00" y2="255.00" /><line x1="182.50" x2="182.50" y1="250.00" y2="255.00" /><line x1="248.75" x2="248.75" y1="250.00" y2="255.00" /><line x1="381.25" x2="381.25" y1="250.00" y2="255.00" /><line x1="447.50" x2="447.50" y1="250.00" y2="255.00" /><line x1="513.75" x2="513.75" y1="250.00" y2="255.00" /><g fill="black" font-family="Arial, sans-serif" font-size="10" stroke="none" text-anchor="middle"><text x="50.00" y="270.00">0.00</text><text x="315.00" y="270.00">0.50</text><text x="580.00" y="270.00">1.00</text></g><line x1="50.00" x2="580.00" y1="250.00" y2="250.00" /></g><g stroke="black"><line x1="50.00" x2="40.00" y1="250.00" y2="250.00" /><line x1="50.00" x2="40.00" y1="204.00" y2="204.00" /><line x1="50.00" x2="40.00" y1="158.00" y2="158.00" /><line x1="50.00" x2="40.00" y1="112.00" y2="112.00" /><line x1="50.00" x2="40.00" y1="66.00" y2="66.00" /><line x1="50.00" x2="40.00" y1="20.00" y2="20.00" /><line x1="50.00" x2="45.00" y1="227.00" y2="227.00" /><line x1="50.00" x2="45.00" y1="181.00" y2="181.00" /><line x1="50.00" x2="45.00" y1="135.00" y2="135.00" /><line x1="50.00" x2="45.00" y1="112.00" y2="112.00" /><line x1="50.00" x2="45.00" y1="89.00" y2="89.00" /><line x1="50.00" x2="45.00" y1="66.00" y2="66.00" /><line x1="50.00" x2="45.00" y1="43.00" y2="43.00" /><line x1="50.00" x2="45.00" y1="20.00" y2="20.00" /><g fill="black" font-family="Arial, sans-serif" font-size="10" stroke="none" text-anchor="end"><text x="35.00" y="250.00">0.00</text><text x="35.00" y="204.00">0.20</text><text x="35.00" y="158.00">0.40</text><text x="35.00" y="112.00">0.60</text><text x="35.00" y="66.00">0.80</text><text x="35.00" y="20.00">1.00</text></g><line x1="50.00" x2="50.00" y1="250.00" y2="20.00" /></g></g></svg>