<?xml version="1.0"?>
<svg height="300" version="1.1" width="600" xmlns:xlink="http://www.w3.org/1999/xlink" xmlns="http://www.w3.org/2000/svg"><rect fill="#000040" height="20" width="10" x="50.00" y="280.00" /><rect fill="#000042" height="20" width="10" x="55.25" y="280.00" /><rect fill="#000044" height="20" width="10" x="60.51" y="280.00" /><rect fill="#000147" height="20" width="10" x="65.76" y="280.00" /><rect fill="#000149" height="20" width="10" x="71.01" y="280.00" /><rect fill="#00024c" height="20" width="10" x="76.26" y="280.00" /><rect fill="#00024e" height="20" width="10" x="81.52" y="280.00" /><rect fill="#000351" height="20" width="10" x="86.77" y="280.00" /><rect fill="#000453" height="20" width="10" x="92.02" y="280.00" /><rect fill="#000556" height="20" width="10" x="97.27" y="280.00" /><rect fill="#000658" height="20" width="10" x="102.53" y="280.00" /><rect fill="#00085b" height="20" width="10" x="107.78" y="280.00" /><rect fill="#00095d" height="20" width="10" x="113.03" y="280.00" /><rect fill="#000b60" height="20" width="10" x="118.28" y="280.00" /><rect fill="#000c63" height="20" width="10" x="123.54" y="280.00" /><rect fill="#000e65" height="20" width="10" x="128.79" y="280.00" /><rect fill="#001068" height="20" width="10" x="134.04" y="280.00" /><rect fill="#00126b" height="20" width="10" x="139.29" y="280.00" /><rect fill="#00146d" height="20" width="10" x="144.55" y="280.00" /><rect fill="#001670" height="20" width="10" x="149.80" y="280.00" /><rect fill="#001973" height="20" width="10" x="155.05" y="280.00" /><rect fill="#001b75" height="20" width="10" x="160.30" y="280.00" /><rect fill="#001e78" height="20" width="10" x="165.56" y="280.00" /><rect fill="#00207b" height="20" width="10" x="170.81" y="280.00" /><rect fill="#00237d" height="20" width="10" x="176.06" y="280.00" /><rect fill="#002680" height="20" width="10" x="181.31" y="280.00" /><rect fill="#002983" height="20" width="10" x="186.57" y="280.00" /><rect fill="#002983" height="20" width="10" x="191.82" y="280.00" /><rect fill="#002f88" height="20" width="10" x="197.07" y="280.00" /><rect fill="#00328b" height="20" width="10" x="202.32" y="280.00" /><rect fill="#00368e" height="20" width="10" x="207.58" y="280.00" /><rect fill="#003990" height="20" width="10" x="212.83" y="280.00" /><rect fill="#003c93" height="20" width="10" x="218.08" y="280.00" /><rect fill="#004096" height="20" width="10" x="223.33" y="280.00" /><rect fill="#004398" height="20" width="10" x="228.59" y="280.00" /><rect fill="#00479b" height="20" width="10" x="233.84" y="280.00" /><rect fill="#004b9d" height="20" width="10" x="239.09" y="280.00" /><rect fill="#004ea0" height="20" width="10" x="244.34" y="280.00" /><rect fill="#0052a3" height="20" width="10" x="249.60" y="280.00" /><rect fill="#0056a5" height="20" width="10" x="254.85" y="280.00" /><rect fill="#005aa8" height="20" width="10" x="260.10" y="280.00" /><rect fill="#005eaa" height="20" width="10" x="265.35" y="280.00" /><rect fill="#0061ad" height="20" width="10" x="270.61" y="280.00" /><rect fill="#0065af" height="20" width="10" x="275.86" y="280.00" /><rect fill="#0069b2" height="20" width="10" x="281.11" y="280.00" /><rect fill="#006db4" height="20" width="10" x="286.36" y="280.00" /><rect fill="#0071b7" height="20" width="10" x="291.62" y="280.00" /><rect fill="#0075b9" height="20" width="10" x="296.87" y="280.00" /><rect fill="#0079bc" height="20" width="10" x="302.12" y="280.00" /><rect fill="#007dbe" height="20" width="10" x="307.37" y="280.00" /><rect fill="#0082c0" height="20" width="10" x="312.63" y="280.00" /><rect fill="#0086c3" height="20" width="10" x="317.88" y="280.00" /><rect fill="#008ac5" height="20" width="10" x="323.13" y="280.00" /><rect fill="#008ec7" height="20" width="10" x="328.38" y="280.00" /><rect fill="#008ec7" height="20" width="10" x="333.64" y="280.00" /><rect fill="#0096cc" height="20" width="10" x="338.89" y="280.00" /><rect fill="#009ace" height="20" width="10" x="344.14" y="280.00" /><rect fill="#009ed0" height="20" width="10" x="349.39" y="280.00" /><rect fill="#00a1d2" height="20" width="10" x="354.65" y="280.00" /><rect fill="#00a1d2" height="20" width="10" x="359.90" y="280.00" /><rect fill="#00a9d6" height="20" width="10" x="365.15" y="280.00" /><rect fill="#00add8" height="20" width="10" x="370.40" y="280.00" /><rect fill="#00b1da" height="20" width="10" x="375.66" y="280.00" /><rect fill="#00b4dc" height="20" width="10" x="380.91" y="280.00" /><rect fill="#00b8de" height="20" width="10" x="386.16" y="280.00" /><rect fill="#00bcdf" height="20" width="10" x="391.41" y="280.00" /><rect fill="#00bfe1" height="20" width="10" x="396.67" y="280.00" /><rect fill="#00c3e3" height="20" width="10" x="401.92" y="280.00" /><rect fill="#00c6e5" height="20" width="10" x="407.17" y="280.00" /><rect fill="#00c9e6" height="20" width="10" x="412.42" y="280.00" /><rect fill="#00cde8" height="20" width="10" x="417.68" y="280.00" /><rect fill="#00d0e9" height="20" width="10" x="422.93" y="280.00" /><rect fill="#00d3eb" height="20" width="10" x="428.18" y="280.00" /><rect fill="#00d6ec" height="20" width="10" x="433.43" y="280.00" /><rect fill="#00d9ee" height="20" width="10" x="438.69" y="280.00" /><rect fill="#00dcef" height="20" width="10" x="443.94" y="280.00" /><rect fill="#00dff0" height="20" width="10" x="449.19" y="280.00" /><rect fill="#00e1f1" height="20" width="10" x="454.44" y="280.00" /><rect fill="#00e4f3" height="20" width="10" x="459.70" y="280.00" /><rect fill="#00e6f4" height="20" width="10" x="464.95" y="280.00" /><rect fill="#00e9f5" height="20" width="10" x="470.20" y="280.00" /><rect fill="#00ebf6" height="20" width="10" x="475.45" y="280.00" /><rect fill="#00edf7" height="20" width="10" x="480.71" y="280.00" /><rect fill="#00eff8" height="20" width="10" x="485.96" y="280.00" /><rect fill="#00f1f9" height="20" width="10" x="491.21" y="280.00" /><rect fill="#00f3f9" height="20" width="10" x="496.46" y="280.00" /><rect fill="#00f4fa" height="20" width="10" x="501.72" y="280.00" /><rect fill="#00f6fb" height="20" width="10" x="506.97" y="280.00" /><rect fill="#00f7fc" height="20" width="10" x="512.22" y="280.00" /><rect fill="#00f9fc" height="20" width="10" x="517.47" y="280.00" /><rect fill="#00fafd" height="20" width="10" x="522.73" y="280.00" /><rect fill="#00fbfd" height="20" width="10" x="527.98" y="280.00" /><rect fill="#00fcfe" height="20" width="10" x="533.23" y="280.00" /><rect fill="#00fdfe" height="20" width="10" x="538.48" y="280.00" /><rect fill="#00fdfe" height="20" width="10" x="543.74" y="280.00" /><rect fill="#00feff" height="20" width="10" x="548.99" y="280.00" /><rect fill="#00feff" height="20" width="10" x="554.24" y="280.00" /><rect fill="#00ffff" height="20" width="10" x="559.49" y="280.00" /><rect fill="#00ffff" height="20" width="10" x="564.75" y="280.00" /><rect fill="#00ffff" height="20" width="10" x="570.00" y="280.00" /><g><g stroke-dasharray="1 1" stroke="#ccc"><line x1="116.25" x2="116.25" y1="250.00" y2="20.00" /><line x1="182.50" x2="182.50" y1="250.00" y2="20.00" /><line x1="248.75" x2="248.75" y1="250.00" y2="20.00" /><line x1="381.25" x2="381.25" y1="250.00" y2="20.00" /><line x1="447.50" x2="447.50" y1="250.00" y2="20.00" /><line x1="513.75" x2="513.75" y1="250.00" y2="20.00" /><line x1="50.00" x2="50.00" y1="250.00" y2="20.00" /><line x1="315.00" x2="315.00" y1="250.00" y2="20.00" /><line x1="580.00" x2="580.00" y1="250.00" y2="20.00" /><line x1="50.00" x2="580.00" y1="227.00" y2="227.00" /><line x1="50.00" x2="580.00" y1="181.00" y2="181.00" /><line x1="50.00" x2="580.00" y1="135.00" y2="135.00" /><line x1="50.00" x2="580.00" y1="112.00" y2="112.00" /><line x1="50.00" x2="580.00" y1="89.00" y2="89.00" /><line x1="50.00" x2="580.00" y1="66.00" y2="66.00" /><line x1="50.00" x2="580.00" y1="43.00" y2="43.00" /><line x1="50.00" x2="580.00" y1="20.00" y2="20.00" /><line x1="50.00" x2="580.00" y1="250.00" y2="250.00" /><line x1="50.00" x2="580.00" y1="204.00" y2="204.00" /><line x1="50.00" x2="580.00" y1="158.00" y2="158.00" /><line x1="50.00" x2="580.00" y1="112.00" y2="112.00" /><line x1="50.00" x2="580.00" y1="66.00" y2="66.00" /><line x1="50.00" x2="580.00" y1="20.00" y2="20.00" /></g><polyline fill="none" points="50.00,250.00 55.35,250.00 60.71,250.00 66.06,250.00 71.41,250.00 76.77,250.00 82.12,250.00 87.47,250.00 92.83,250.00 98.18,250.00 103.54,250.00 108.89,250.00 114.24,250.00 119.60,250.00 124.95,250.00 130.30,250.00 135.66,250.00 141.01,250.00 146.36,250.00 151.72,250.00 157.07,250.00 162.42,250.00 167.78,250.00 173.13,250.00 178.48,250.00 183.84,250.00 189.19,250.00 194.55,250.00 199.90,250.00 205.25,250.00 210.61,250.00 215.96,250.00 221.31,250.00 226.67,250.00 232.02,250.00 237.37,250.00 242.73,250.00 248.08,250.00 253.43,250.00 258.79,250.00 264.14,250.00 269.49,250.00 274.85,250.00 280.20,250.00 285.56,250.00 290.91,250.00 296.26,250.00 301.62,250.00 306.97,250.00 312.32,250.00 317.68,250.00 323.03,250.00 328.38,250.00 333.74,250.00 339.09,250.00 344.44,250.00 349.80,250.00 355.15,250.00 360.51,250.00 365.86,250.00 371.21,250.00 376.57,250.00 381.92,250.00 387.27,250.00 392.63,250.00 397.98,250.00 403.33,250.00 408.69,250.00 414.04,250.00 419.39,250.00 424.75,250.00 430.10,250.00 435.45,250.00 440.81,250.00 446.16,250.00 451.52,250.00 456.87,250.00 462.22,250.00 467.58,250.00 472.93,250.00 478.28,250.00 483.64,250.00 488.99,250.00 494.34,250.00 499.70,250.00 505.05,250.00 510.40,250.00 515.76,250.00 521.11,250.00 526.46,250.00 531.82,250.00 537.17,250.00 542.53,250.00 547.88,250.00 553.23,250.00 558.59,250.00 563.94,250.00 569.29,250.00 574.65,250.00 580.00,250.00" stroke="red" /><polyline fill="none" points="50.00,250.00 55.35,249.94 60.71,249.77 66.06,249.48 71.41,249.07 76.77,248.56 82.12,247.92 87.47,247.17 92.83,246.31 98.18,245.34 103.54,244.26 108.89,243.06 114.24,241.76 119.60,240.35 124.95,238.84 130.30,237.22 135.66,235.49 141.01,233.67 146.36,231.74 151.72,229.72 157.07,227.61 162.42,225.40 167.78,223.10 173.13,220.71 178.48,218.23 183.84,215.67 189.19,213.03 194.55,210.31 199.90,207.51 205.25,204.65 210.61,201.71 215.96,198.70 221.31,195.63 226.67,192.50 232.02,189.31 237.37,186.07 242.73,182.77 248.08,179.43 253.43,176.04 258.79,172.61 264.14,169.15 269.49,165.64 274.85,162.11 280.20,158.55 285.56,154.97 290.91,151.37 296.26,147.75 301.62,144.11 306.97,140.47 312.32,136.82 317.68,133.18 323.03,129.53 328.38,125.89 333.74,122.25 339.09,118.63 344.44,115.03 349.80,111.45 355.15,107.89 360.51,104.36 365.86,100.85 371.21,97.39 376.57,93.96 381.92,90.57 387.27,87.23 392.63,83.93 397.98,80.69 403.33,77.50 408.69,74.37 414.04,71.30 419.39,68.29 424.75,65.35 430.10,62.49 435.45,59.69 440.81,56.97 446.16,54.33 451.52,51.77 456.87,49.29 462.22,46.90 467.58,44.60 472.93,42.39 478.28,40.28 483.64,38.26 488.99,36.33 494.34,34.51 499.70,32.78 505.05,31.16 510.40,29.65 515.76,28.24 521.11,26.94 526.46,25.74 531.82,24.66 537.17,23.69 542.53,22.83 547.88,22.08 553.23,21.44 558.59,20.93 563.94,20.52 569.29,20.23 574.65,20.06 580.00,20.00" stroke="green" /><polyline fill="none" points="50.00,192.54 55.35,190.42 60.71,188.28 66.06,186.11 71.41,183.92 76.77,181.71 82.12,179.48 87.47,177.22 92.83,174.95 98.18,172.66 103.54,170.35 108.89,168.03 114.24,165.69 119.60,163.34 124.95,160.98 130.30,158.60 135.66,156.22 141.01,153.82 146.36,151.42 151.72,149.01 157.07,146.59 162.42,144.17 167.78,141.74 173.13,139.31 178.48,136.88 183.84,134.45 189.19,132.01 194.55,129.58 199.90,127.15 205.25,124.73 210.61,122.31 215.96,119.89 221.31,117.49 226.67,115.09 232.02,112.69 237.37,110.31 242.73,107.94 248.08,105.58 253.43,103.24 258.79,100.91 264.14,98.59 269.49,96.29 274.85,94.01 280.20,91.75 285.56,89.50 290.91,87.28 296.26,85.08 301.62,82.90 306.97,80.74 312.32,78.61 317.68,76.50 323.03,74.42 328.38,72.37 333.74,70.34 339.09,68.34 344.44,66.38 349.80,64.44 355.15,62.53 360.51,60.66 365.86,58.82 371.21,57.02 376.57,55.25 381.92,53.51 387.27,51.81 392.63,50.15 397.98,48.53 403.33,46.95 408.69,45.40 414.04,43.90 419.39,42.43 424.75,41.01 430.10,39.63 435.45,38.29 440.81,37.00 446.16,35.75 451.52,34.54 456.87,33.38 462.22,32.26 467.58,31.19 472.93,30.17 478.28,29.19 483.64,28.26 488.99,27.38 494.34,26.55 499.70,25.76 505.05,25.03 510.40,24.34 515.76,23.70 521.11,23.12 526.46,22.58 531.82,22.09 537.17,21.65 542.53,21.27 547.88,20.93 553.23,20.65 558.59,20.42 563.94,20.24 569.29,20.11 574.65,20.03 580.00,20.00" stroke="blue" /><g stroke="black"><line x1="50.00" x2="50.00" y1="250.00" y2="260.00" /><line x1="315.00" x2="315.00" y1="250.00" y2="260.00" /><line x1="580.00" x2="580.00" y1="250.00" y2="260.00" /><line x1="116.25" x2="116.25" y1="250.00" y2="255.00" /><line x1="182.50" x2="182.50" y1="250.00" y2="255.00" /><line x1="248.75" x2="248.75" y1="250.00" y2="255.00" /><line x1="381.25" x2="381.25" y1="250.00" y2="255.00" /><line x1="447.50" x2="447.50" y1="250.00" y2="255.00" /><line x1="513.75" x2="513.75" y1="250.00" y2="255.00" /><g fill="black" font-family="Arial, sans-serif" font-size="10" stroke="none" text-anchor="middle"><text x="50.00" y="270.00">0.00</text><text x="315.00" y="270.00">0.50</text><text x="580.00" y="270.00">1.00</text></g><line x1="50.00" x2="580.00" y1="250.00" y2="250.00" /></g><g stroke="black"><line x1="50.00" x2="40.00" y1="250.00" y2="250.00" /><line x1="50.00" x2="40.00" y1="204.00" y2="204.00" /><line x1="50.00" x2="40.00" y1="158.00" y2="158.00" /><line x1="50.00" x2="40.00" y1="112.00" y2="112.00" /><line x1="50.00" x2="40.00" y1="66.00" y2="66.00" /><line x1="50.00" x2="40.00" y1="20.00" y2="20.00" /><line x1="50.00" x2="45.00" y1="227.00" y2="227.00" /><line x1="50.00" x2="45.00" y1="181.00" y2="181.00" /><line x1="50.00" x2="45.00" y1="135.00" y2="135.00" /><line x1="50.00" x2="45.00" y1="112.00" y2="112.00" /><line x1="50.00" x2="45.00" y1="89.00" y2="89.00" /><line x1="50.00" x2="45.00" y1="66.00" y2="66.00" /><line x1="50.00" x2="45.00" y1="43.00" y2="43.00" /><line x1="50.00" x2="45.00" y1="20.00" y2="20.00" /><g fill="black" font-family="Arial, sans-serif" font-size="10" stroke="none" text-anchor="end"><text x="35.00" y="250.00">0.00</text><text x="35.00" y="204.00">0.20</text><text x="35.00" y="158.00">0.40</text><text x="35.00" y="112.00">0.60</text><text x="35.00" y="66.00">0.80</text><text x="35.00" y="20.00">1.00</text></g><line x1="50.00" x2="50.00" y1="250.00" y2="20.00" /></g></g></svg>