<?xml version="1.0"?>
<svg height="300" version="1.1" width="600" xmlns:xlink="http://www.w3.org/1999/xlink" xmlns="http://www.w3.org/2000/svg"><rect fill="#13fd00" height="20" width="10" x="50.00" y="280.00" /><rect fill="#12fd00" height="20" width="10" x="55.25" y="280.00" /><rect fill="#10fc00" height="20" width="10" x="60.51" y="280.00" /><rect fill="#0ffb00" height="20" width="10" x="65.76" y="280.00" /><rect fill="#0dfa05" height="20" width="10" x="71.01" y="280.00" /><rect fill="#0cf90b" height="20" width="10" x="76.26" y="280.00" /><rect fill="#0bf811" height="20" width="10" x="81.52" y="280.00" /><rect fill="#09f718" height="20" width="10" x="86.77" y="280.00" /><rect fill="#08f61e" height="20" width="10" x="92.02" y="280.00" /><rect fill="#07f524" height="20" width="10" x="97.27" y="280.00" /><rect fill="#07f32b" height="20" width="10" x="102.53" y="280.00" /><rect fill="#06f231" height="20" width="10" x="107.78" y="280.00" /><rect fill="#05f137" height="20" width="10" x="113.03" y="280.00" /><rect fill="#05ef3d" height="20" width="10" x="118.28" y="280.00" /><rect fill="#04ee43" height="20" width="10" x="123.54" y="280.00" /><rect fill="#04ec49" height="20" width="10" x="128.79" y="280.00" /><rect fill="#04ea4f" height="20" width="10" x="134.04" y="280.00" /><rect fill="#04e955" height="20" width="10" x="139.29" y="280.00" /><rect fill="#04e75a" height="20" width="10" x="144.55" y="280.00" /><rect fill="#04e560" height="20" width="10" x="149.80" y="280.00" /><rect fill="#04e365" height="20" width="10" x="155.05" y="280.00" /><rect fill="#04e16a" height="20" width="10" x="160.30" y="280.00" /><rect fill="#04e070" height="20" width="10" x="165.56" y="280.00" /><rect fill="#05de75" height="20" width="10" x="170.81" y="280.00" /><rect fill="#05dc79" height="20" width="10" x="176.06" y="280.00" /><rect fill="#06da7e" height="20" width="10" x="181.31" y="280.00" /><rect fill="#07d783" height="20" width="10" x="186.57" y="280.00" /><rect fill="#07d783" height="20" width="10" x="191.82" y="280.00" /><rect fill="#09d38c" height="20" width="10" x="197.07" y="280.00" /><rect fill="#0ad190" height="20" width="10" x="202.32" y="280.00" /><rect fill="#0bcf94" height="20" width="10" x="207.58" y="280.00" /><rect fill="#0ccd97" height="20" width="10" x="212.83" y="280.00" /><rect fill="#0dca9b" height="20" width="10" x="218.08" y="280.00" /><rect fill="#0fc89e" height="20" width="10" x="223.33" y="280.00" /><rect fill="#10c6a2" height="20" width="10" x="228.59" y="280.00" /><rect fill="#12c3a5" height="20" width="10" x="233.84" y="280.00" /><rect fill="#14c1a7" height="20" width="10" x="239.09" y="280.00" /><rect fill="#15bfaa" height="20" width="10" x="244.34" y="280.00" /><rect fill="#17bdac" height="20" width="10" x="249.60" y="280.00" /><rect fill="#19baaf" height="20" width="10" x="254.85" y="280.00" /><rect fill="#1bb8b1" height="20" width="10" x="260.10" y="280.00" /><rect fill="#1eb6b2" height="20" width="10" x="265.35" y="280.00" /><rect fill="#20b3b4" height="20" width="10" x="270.61" y="280.00" /><rect fill="#22b1b5" height="20" width="10" x="275.86" y="280.00" /><rect fill="#25afb6" height="20" width="10" x="281.11" y="280.00" /><rect fill="#27acb7" height="20" width="10" x="286.36" y="280.00" /><rect fill="#2aaab8" height="20" width="10" x="291.62" y="280.00" /><rect fill="#2ca8b9" height="20" width="10" x="296.87" y="280.00" /><rect fill="#2fa5b9" height="20" width="10" x="302.12" y="280.00" /><rect fill="#32a3b9" height="20" width="10" x="307.37" y="280.00" /><rect fill="#35a1b9" height="20" width="10" x="312.63" y="280.00" /><rect fill="#389fb8" height="20" width="10" x="317.88" y="280.00" /><rect fill="#3b9db8" height="20" width="10" x="323.13" y="280.00" /><rect fill="#3e9bb7" height="20" width="10" x="328.38" y="280.00" /><rect fill="#3e9bb7" height="20" width="10" x="333.64" y="280.00" /><rect fill="#4596b4" height="20" width="10" x="338.89" y="280.00" /><rect fill="#4894b3" height="20" width="10" x="344.14" y="280.00" /><rect fill="#4b92b1" height="20" width="10" x="349.39" y="280.00" /><rect fill="#4f90af" height="20" width="10" x="354.65" y="280.00" /><rect fill="#4f90af" height="20" width="10" x="359.90" y="280.00" /><rect fill="#568dab" height="20" width="10" x="365.15" y="280.00" /><rect fill="#5a8ba8" height="20" width="10" x="370.40" y="280.00" /><rect fill="#5e89a6" height="20" width="10" x="375.66" y="280.00" /><rect fill="#6187a3" height="20" width="10" x="380.91" y="280.00" /><rect fill="#6586a0" height="20" width="10" x="386.16" y="280.00" /><rect fill="#69849c" height="20" width="10" x="391.41" y="280.00" /><rect fill="#6d8399" height="20" width="10" x="396.67" y="280.00" /><rect fill="#718195" height="20" width="10" x="401.92" y="280.00" /><rect fill="#758091" height="20" width="10" x="407.17" y="280.00" /><rect fill="#797e8d" height="20" width="10" x="412.42" y="280.00" /><rect fill="#7d7d89" height="20" width="10" x="417.68" y="280.00" /><rect fill="#827c84" height="20" width="10" x="422.93" y="280.00" /><rect fill="#867b80" height="20" width="10" x="428.18" y="280.00" /><rect fill="#8a7a7b" height="20" width="10" x="433.43" y="280.00" /><rect fill="#8f7976" height="20" width="10" x="438.69" y="280.00" /><rect fill="#937871" height="20" width="10" x="443.94" y="280.00" /><rect fill="#97776c" height="20" width="10" x="449.19" y="280.00" /><rect fill="#9c7667" height="20" width="10" x="454.44" y="280.00" /><rect fill="#a07562" height="20" width="10" x="459.70" y="280.00" /><rect fill="#a5755c" height="20" width="10" x="464.95" y="280.00" /><rect fill="#a97457" height="20" width="10" x="470.20" y="280.00" /><rect fill="#ae7451" height="20" width="10" x="475.45" y="280.00" /><rect fill="#b3734b" height="20" width="10" x="480.71" y="280.00" /><rect fill="#b77345" height="20" width="10" x="485.96" y="280.00" /><rect fill="#bc723f" height="20" width="10" x="491.21" y="280.00" /><rect fill="#c17239" height="20" width="10" x="496.46" y="280.00" /><rect fill="#c57233" height="20" width="10" x="501.72" y="280.00" /><rect fill="#ca722d" height="20" width="10" x="506.97" y="280.00" /><rect fill="#cf7227" height="20" width="10" x="512.22" y="280.00" /><rect fill="#d37220" height="20" width="10" x="517.47" y="280.00" /><rect fill="#d8721a" height="20" width="10" x="522.73" y="280.00" /><rect fill="#dd7214" height="20" width="10" x="527.98" y="280.00" /><rect fill="#e1730d" height="20" width="10" x="533.23" y="280.00" /><rect fill="#e67307" height="20" width="10" x="538.48" y="280.00" /><rect fill="#eb7401" height="20" width="10" x="543.74" y="280.00" /><rect fill="#f07400" height="20" width="10" x="548.99" y="280.00" /><rect fill="#f47500" height="20" width="10" x="554.24" y="280.00" /><rect fill="#f97600" height="20" width="10" x="559.49" y="280.00" /><rect fill="#fe7600" height="20" width="10" x="564.75" y="280.00" /><rect fill="#ff7700" height="20" width="10" x="570.00" y="280.00" /><g><g stroke-dasharray="1 1" stroke="#ccc"><line x1="116.25" x2="116.25" y1="250.00" y2="20.00" /><line x1="182.50" x2="182.50" y1="250.00" y2="20.00" /><line x1="248.75" x2="248.75" y1="250.00" y2="20.00" /><line x1="381.25" x2="381.25" y1="250.00" y2="20.00" /><line x1="447.50" x2="447.50" y1="250.00" y2="20.00" /><line x1="513.75" x2="513.75" y1="250.00" y2="20.00" /><line x1="50.00" x2="50.00" y1="250.00" y2="20.00" /><line x1="315.00" x2="315.00" y1="250.00" y2="20.00" /><line x1="580.00" x2="580.00" y1="250.00" y2="20.00" /><line x1="50.00" x2="580.00" y1="227.00" y2="227.00" /><line x1="50.00" x2="580.00" y1="181.00" y2="181.00" /><line x1="50.00" x2="580.00" y1="135.00" y2="135.00" /><line x1="50.00" x2="580.00" y1="112.00" y2="112.00" /><line x1="50.00" x2="580.00" y1="89.00" y2="89.00" /><line x1="50.00" x2="580.00" y1="66.00" y2="66.00" /><line x1="50.00" x2="580.00" y1="43.00" y2="43.00" /><line x1="50.00" x2="580.00" y1="20.00" y2="20.00" /><line x1="50.00" x2="580.00" y1="250.00" y2="250.00" /><line x1="50.00" x2="580.00" y1="204.00" y2="204.00" /><line x1="50.00" x2="580.00" y1="158.00" y2="158.00" /><line x1="50.00" x2="580.00" y1="112.00" y2="112.00" /><line x1="50.00" x2="580.00" y1="66.00" y2="66.00" /><line x1="50.00" x2="580.00" y1="20.00" y2="20.00" /></g><polyline fill="none" points="50.00,232.60 55.35,234.12 60.71,235.56 66.06,236.92 71.41,238.19 76.77,239.38 82.12,240.47 87.47,241.49 92.83,242.41 98.18,243.25 103.54,243.99 108.89,244.65 114.24,245.23 119.60,245.71 124.95,246.10 130.30,246.41 135.66,246.62 141.01,246.74 146.36,246.78 151.72,246.72 157.07,246.58 162.42,246.35 167.78,246.02 173.13,245.61 178.48,245.11 183.84,244.52 189.19,243.84 194.55,243.07 199.90,242.22 205.25,241.27 210.61,240.24 215.96,239.13 221.31,237.92 226.67,236.63 232.02,235.26 237.37,233.80 242.73,232.26 248.08,230.63 253.43,228.92 258.79,227.13 264.14,225.26 269.49,223.31 274.85,221.28 280.20,219.17 285.56,216.99 290.91,214.72 296.26,212.38 301.62,209.97 306.97,207.49 312.32,204.93 317.68,202.30 323.03,199.60 328.38,196.83 333.74,194.00 339.09,191.10 344.44,188.13 349.80,185.10 355.15,182.01 360.51,178.86 365.86,175.64 371.21,172.37 376.57,169.05 381.92,165.66 387.27,162.23 392.63,158.74 397.98,155.20 403.33,151.61 408.69,147.98 414.04,144.30 419.39,140.57 424.75,136.80 430.10,133.00 435.45,129.15 440.81,125.26 446.16,121.34 451.52,117.39 456.87,113.40 462.22,109.38 467.58,105.34 472.93,101.27 478.28,97.17 483.64,93.05 488.99,88.90 494.34,84.74 499.70,80.56 505.05,76.37 510.40,72.16 515.76,67.94 521.11,63.70 526.46,59.46 531.82,55.22 537.17,50.97 542.53,46.71 547.88,42.46 553.23,38.20 558.59,33.95 563.94,29.71 569.29,25.47 574.65,21.23 580.00,20.00" stroke="red" /><polyline fill="none" points="50.00,21.63 55.35,22.22 60.71,22.88 66.06,23.61 71.41,24.40 76.77,25.25 82.12,26.17 87.47,27.15 92.83,28.19 98.18,29.28 103.54,30.44 108.89,31.65 114.24,32.92 119.60,34.25 124.95,35.62 130.30,37.05 135.66,38.53 141.01,40.05 146.36,41.63 151.72,43.25 157.07,44.91 162.42,46.61 167.78,48.35 173.13,50.13 178.48,51.95 183.84,53.80 189.19,55.68 194.55,57.59 199.90,59.53 205.25,61.49 210.61,63.48 215.96,65.49 221.31,67.52 226.67,69.56 232.02,71.62 237.37,73.70 242.73,75.78 248.08,77.87 253.43,79.97 258.79,82.07 264.14,84.17 269.49,86.27 274.85,88.37 280.20,90.46 285.56,92.55 290.91,94.62 296.26,96.68 301.62,98.73 306.97,100.76 312.32,102.77 317.68,104.76 323.03,106.73 328.38,108.67 333.74,110.59 339.09,112.47 344.44,114.33 349.80,116.15 355.15,117.93 360.51,119.68 365.86,121.39 371.21,123.05 376.57,124.68 381.92,126.25 387.27,127.79 392.63,129.27 397.98,130.70 403.33,132.09 408.69,133.42 414.04,134.69 419.39,135.91 424.75,137.08 430.10,138.18 435.45,139.23 440.81,140.21 446.16,141.14 451.52,142.00 456.87,142.80 462.22,143.53 467.58,144.20 472.93,144.80 478.28,145.34 483.64,145.81 488.99,146.21 494.34,146.54 499.70,146.80 505.05,147.00 510.40,147.13 515.76,147.19 521.11,147.18 526.46,147.10 531.82,146.95 537.17,146.73 542.53,146.44 547.88,146.09 553.23,145.66 558.59,145.17 563.94,144.62 569.29,143.99 574.65,143.30 580.00,142.55" stroke="green" /><polyline fill="none" points="50.00,250.00 55.35,250.00 60.71,250.00 66.06,250.00 71.41,245.79 76.77,240.03 82.12,234.28 87.47,228.54 92.83,222.84 98.18,217.17 103.54,211.53 108.89,205.94 114.24,200.41 119.60,194.93 124.95,189.52 130.30,184.18 135.66,178.92 141.01,173.75 146.36,168.67 151.72,163.68 157.07,158.80 162.42,154.03 167.78,149.37 173.13,144.83 178.48,140.42 183.84,136.14 189.19,131.99 194.55,127.99 199.90,124.13 205.25,120.42 210.61,116.87 215.96,113.48 221.31,110.25 226.67,107.19 232.02,104.30 237.37,101.58 242.73,99.04 248.08,96.68 253.43,94.50 258.79,92.51 264.14,90.71 269.49,89.10 274.85,87.68 280.20,86.46 285.56,85.43 290.91,84.60 296.26,83.97 301.62,83.53 306.97,83.30 312.32,83.26 317.68,83.42 323.03,83.79 328.38,84.35 333.74,85.11 339.09,86.06 344.44,87.22 349.80,88.56 355.15,90.10 360.51,91.84 365.86,93.76 371.21,95.86 376.57,98.16 381.92,100.63 387.27,103.28 392.63,106.11 397.98,109.11 403.33,112.28 408.69,115.61 414.04,119.11 419.39,122.76 424.75,126.56 430.10,130.51 435.45,134.61 440.81,138.84 446.16,143.20 451.52,147.70 456.87,152.31 462.22,157.04 467.58,161.89 472.93,166.84 478.28,171.88 483.64,177.03 488.99,182.25 494.34,187.56 499.70,192.95 505.05,198.40 510.40,203.92 515.76,209.48 521.11,215.10 526.46,220.76 531.82,226.46 537.17,232.18 542.53,237.92 547.88,243.68 553.23,249.45 558.59,250.00 563.94,250.00 569.29,250.00 574.65,250.00 580.00,250.00" stroke="blue" /><g stroke="black"><line x1="50.00" x2="50.00" y1="250.00" y2="260.00" /><line x1="315.00" x2="315.00" y1="250.00" y2="260.00" /><line x1="580.00" x2="580.00" y1="250.00" y2="260.00" /><line x1="116.25" x2="116.25" y1="250.00" y2="255.00" /><line x1="182.50" x2="182.50" y1="250.00" y2="255.00" /><line x1="248.75" x2="248.75" y1="250.00" y2="255.00" /><line x1="381.25" x2="381.25" y1="250.00" y2="255.00" /><line x1="447.50" x2="447.50" y1="250.00" y2="255.00" /><line x1="513.75" x2="513.75" y1="250.00" y2="255.00" /><g fill="black" font-family="Arial, sans-serif" font-size="10" stroke="none" text-anchor="middle"><text x="50.00" y="270.00">0.00</text><text x="315.00" y="270.00">0.50</text><text x="580.00" y="270.00">1.00</text></g><line x1="50.00" x2="580.00" y1="250.00" y2="250.00" /></g><g stroke="black"><line x1="50.00" x2="40.00" y1="250.00" y2="250.00" /><line x1="50.00" x2="40.00" y1="204.00" y2="204.00" /><line x1="50.00" x2="40.00" y1="158.00" y2="158.00" /><line x1="50.00" x2="40.00" y1="112.00" y2="112.00" /><line x1="50.00" x2="40.00" y1="66.00" y2="66.00" /><line x1="50.00" x2="40.00" y1="20.00" y2="20.00" /><line x1="50.00" x2="45.00" y1="227.00" y2="227.00" /><line x1="50.00" x2="45.00" y1="181.00" y2="181.00" /><line x1="50.00" x2="45.00" y1="135.00" y2="135.00" /><line x1="50.00" x2="45.00" y1="112.00" y2="112.00" /><line x1="50.00" x2="45.00" y1="89.00" y2="89.00" /><line x1="50.00" x2="45.00" y1="66.00" y2="66.00" /><line x1="50.00" x2="45.00" y1="43.00" y2="43.00" /><line x1="50.00" x2="45.00" y1="20.00" y2="20.00" /><g fill="black" font-family="Arial, sans-serif" font-size="10" stroke="none" text-anchor="end"><text x="35.00" y="250.00">0.00</text><text x="35.00" y="204.00">0.20</text><text x="35.00" y="158.00">0.40</text><text x="35.00" y="112.00">0.60</text><text x="35.00" y="66.00">0.80</text><text x="35.00" y="20.00">1.00</text></g><line x1="50.00" x2="50.00" y1="250.00" y2="20.00" /></g></g></svg>