<?xml version="1.0"?>
<svg height="300" version="1.1" width="600" xmlns:xlink="http://www.w3.org/1999/xlink" xmlns="http://www.w3.org/2000/svg"><rect fill="#ffa700" height="20" width="10" x="50.00" y="280.00" /><rect fill="#ffa100" height="20" width="10" x="55.25" y="280.00" /><rect fill="#fe9a00" height="20" width="10" x="60.51" y="280.00" /><rect fill="#fe9401" height="20" width="10" x="65.76" y="280.00" /><rect fill="#fc8e01" height="20" width="10" x="71.01" y="280.00" /><rect fill="#fb8702" height="20" width="10" x="76.26" y="280.00" /><rect fill="#f98102" height="20" width="10" x="81.52" y="280.00" /><rect fill="#f77a03" height="20" width="10" x="86.77" y="280.00" /><rect fill="#f57404" height="20" width="10" x="92.02" y="280.00" /><rect fill="#f26d05" height="20" width="10" x="97.27" y="280.00" /><rect fill="#ef6706" height="20" width="10" x="102.53" y="280.00" /><rect fill="#ec6108" height="20" width="10" x="107.78" y="280.00" /><rect fill="#e85a09" height="20" width="10" x="113.03" y="280.00" /><rect fill="#e4540b" height="20" width="10" x="118.28" y="280.00" /><rect fill="#e04e0c" height="20" width="10" x="123.54" y="280.00" /><rect fill="#dc480e" height="20" width="10" x="128.79" y="280.00" /><rect fill="#d74310" height="20" width="10" x="134.04" y="280.00" /><rect fill="#d23d12" height="20" width="10" x="139.29" y="280.00" /><rect fill="#cd3814" height="20" width="10" x="144.55" y="280.00" /><rect fill="#c83216" height="20" width="10" x="149.80" y="280.00" /><rect fill="#c32d19" height="20" width="10" x="155.05" y="280.00" /><rect fill="#bd281b" height="20" width="10" x="160.30" y="280.00" /><rect fill="#b7241e" height="20" width="10" x="165.56" y="280.00" /><rect fill="#b21f20" height="20" width="10" x="170.81" y="280.00" /><rect fill="#ab1b23" height="20" width="10" x="176.06" y="280.00" /><rect fill="#a51726" height="20" width="10" x="181.31" y="280.00" /><rect fill="#9f1429" height="20" width="10" x="186.57" y="280.00" /><rect fill="#9f1429" height="20" width="10" x="191.82" y="280.00" /><rect fill="#920d2f" height="20" width="10" x="197.07" y="280.00" /><rect fill="#8c0b32" height="20" width="10" x="202.32" y="280.00" /><rect fill="#860836" height="20" width="10" x="207.58" y="280.00" /><rect fill="#7f0639" height="20" width="10" x="212.83" y="280.00" /><rect fill="#79043c" height="20" width="10" x="218.08" y="280.00" /><rect fill="#720340" height="20" width="10" x="223.33" y="280.00" /><rect fill="#6c0243" height="20" width="10" x="228.59" y="280.00" /><rect fill="#650147" height="20" width="10" x="233.84" y="280.00" /><rect fill="#5f004b" height="20" width="10" x="239.09" y="280.00" /><rect fill="#59004e" height="20" width="10" x="244.34" y="280.00" /><rect fill="#530052" height="20" width="10" x="249.60" y="280.00" /><rect fill="#4d0156" height="20" width="10" x="254.85" y="280.00" /><rect fill="#47015a" height="20" width="10" x="260.10" y="280.00" /><rect fill="#41025e" height="20" width="10" x="265.35" y="280.00" /><rect fill="#3c0461" height="20" width="10" x="270.61" y="280.00" /><rect fill="#360665" height="20" width="10" x="275.86" y="280.00" /><rect fill="#310869" height="20" width="10" x="281.11" y="280.00" /><rect fill="#2c0a6d" height="20" width="10" x="286.36" y="280.00" /><rect fill="#270d71" height="20" width="10" x="291.62" y="280.00" /><rect fill="#231075" height="20" width="10" x="296.87" y="280.00" /><rect fill="#1e1379" height="20" width="10" x="302.12" y="280.00" /><rect fill="#1a167d" height="20" width="10" x="307.37" y="280.00" /><rect fill="#161a82" height="20" width="10" x="312.63" y="280.00" /><rect fill="#131e86" height="20" width="10" x="317.88" y="280.00" /><rect fill="#10238a" height="20" width="10" x="323.13" y="280.00" /><rect fill="#0d278e" height="20" width="10" x="328.38" y="280.00" /><rect fill="#0d278e" height="20" width="10" x="333.64" y="280.00" /><rect fill="#083196" height="20" width="10" x="338.89" y="280.00" /><rect fill="#06369a" height="20" width="10" x="344.14" y="280.00" /><rect fill="#043c9e" height="20" width="10" x="349.39" y="280.00" /><rect fill="#0241a1" height="20" width="10" x="354.65" y="280.00" /><rect fill="#0241a1" height="20" width="10" x="359.90" y="280.00" /><rect fill="#014da9" height="20" width="10" x="365.15" y="280.00" /><rect fill="#0053ad" height="20" width="10" x="370.40" y="280.00" /><rect fill="#0059b1" height="20" width="10" x="375.66" y="280.00" /><rect fill="#005fb4" height="20" width="10" x="380.91" y="280.00" /><rect fill="#0165b8" height="20" width="10" x="386.16" y="280.00" /><rect fill="#026cbc" height="20" width="10" x="391.41" y="280.00" /><rect fill="#0372bf" height="20" width="10" x="396.67" y="280.00" /><rect fill="#0479c3" height="20" width="10" x="401.92" y="280.00" /><rect fill="#067fc6" height="20" width="10" x="407.17" y="280.00" /><rect fill="#0886c9" height="20" width="10" x="412.42" y="280.00" /><rect fill="#0b8ccd" height="20" width="10" x="417.68" y="280.00" /><rect fill="#0d92d0" height="20" width="10" x="422.93" y="280.00" /><rect fill="#1099d3" height="20" width="10" x="428.18" y="280.00" /><rect fill="#149fd6" height="20" width="10" x="433.43" y="280.00" /><rect fill="#17a5d9" height="20" width="10" x="438.69" y="280.00" /><rect fill="#1babdc" height="20" width="10" x="443.94" y="280.00" /><rect fill="#1fb2df" height="20" width="10" x="449.19" y="280.00" /><rect fill="#24b7e1" height="20" width="10" x="454.44" y="280.00" /><rect fill="#28bde4" height="20" width="10" x="459.70" y="280.00" /><rect fill="#2dc3e6" height="20" width="10" x="464.95" y="280.00" /><rect fill="#32c8e9" height="20" width="10" x="470.20" y="280.00" /><rect fill="#38cdeb" height="20" width="10" x="475.45" y="280.00" /><rect fill="#3dd2ed" height="20" width="10" x="480.71" y="280.00" /><rect fill="#43d7ef" height="20" width="10" x="485.96" y="280.00" /><rect fill="#48dcf1" height="20" width="10" x="491.21" y="280.00" /><rect fill="#4ee0f3" height="20" width="10" x="496.46" y="280.00" /><rect fill="#54e4f4" height="20" width="10" x="501.72" y="280.00" /><rect fill="#5ae8f6" height="20" width="10" x="506.97" y="280.00" /><rect fill="#61ecf7" height="20" width="10" x="512.22" y="280.00" /><rect fill="#67eff9" height="20" width="10" x="517.47" y="280.00" /><rect fill="#6df2fa" height="20" width="10" x="522.73" y="280.00" /><rect fill="#74f5fb" height="20" width="10" x="527.98" y="280.00" /><rect fill="#7af7fc" height="20" width="10" x="533.23" y="280.00" /><rect fill="#81f9fd" height="20" width="10" x="538.48" y="280.00" /><rect fill="#87fbfd" height="20" width="10" x="543.74" y="280.00" /><rect fill="#8efcfe" height="20" width="10" x="548.99" y="280.00" /><rect fill="#94fefe" height="20" width="10" x="554.24" y="280.00" /><rect fill="#9afeff" height="20" width="10" x="559.49" y="280.00" /><rect fill="#a1ffff" height="20" width="10" x="564.75" y="280.00" /><rect fill="#a7ffff" height="20" width="10" x="570.00" y="280.00" /><g><g stroke-dasharray="1 1" stroke="#ccc"><line x1="116.25" x2="116.25" y1="250.00" y2="20.00" /><line x1="182.50" x2="182.50" y1="250.00" y2="20.00" /><line x1="248.75" x2="248.75" y1="250.00" y2="20.00" /><line x1="381.25" x2="381.25" y1="250.00" y2="20.00" /><line x1="447.50" x2="447.50" y1="250.00" y2="20.00" /><line x1="513.75" x2="513.75" y1="250.00" y2="20.00" /><line x1="50.00" x2="50.00" y1="250.00" y2="20.00" /><line x1="315.00" x2="315.00" y1="250.00" y2="20.00" /><line x1="580.00" x2="580.00" y1="250.00" y2="20.00" /><line x1="50.00" x2="580.00" y1="227.00" y2="227.00" /><line x1="50.00" x2="580.00" y1="181.00" y2="181.00" /><line x1="50.00" x2="580.00" y1="135.00" y2="135.00" /><line x1="50.00" x2="580.00" y1="112.00" y2="112.00" /><line x1="50.00" x2="580.00" y1="89.00" y2="89.00" /><line x1="50.00" x2="580.00" y1="66.00" y2="66.00" /><line x1="50.00" x2="580.00" y1="43.00" y2="43.00" /><line x1="50.00" x2="580.00" y1="20.00" y2="20.00" /><line x1="50.00" x2="580.00" y1="250.00" y2="250.00" /><line x1="50.00" x2="580.00" y1="204.00" y2="204.00" /><line x1="50.00" x2="580.00" y1="158.00" y2="158.00" /><line x1="50.00" x2="580.00" y1="112.00" y2="112.00" /><line x1="50.00" x2="580.00" y1="66.00" y2="66.00" /><line x1="50.00" x2="580.00" y1="20.00" y2="20.00" /></g><polyline fill="none" points="50.00,20.00 55.35,20.15 60.71,20.59 66.06,21.33 71.41,22.36 76.77,23.69 82.12,25.30 87.47,27.19 92.83,29.36 98.18,31.80 103.54,34.51 108.89,37.47 114.24,40.69 119.60,44.15 124.95,47.85 130.30,51.77 135.66,55.91 141.01,60.24 146.36,64.78 151.72,69.49 157.07,74.37 162.42,79.41 167.78,84.59 173.13,89.90 178.48,95.32 183.84,100.85 189.19,106.47 194.55,112.16 199.90,117.91 205.25,123.71 210.61,129.53 215.96,135.36 221.31,141.20 226.67,147.02 232.02,152.81 237.37,158.55 242.73,164.24 248.08,169.84 253.43,175.36 258.79,180.77 264.14,186.07 269.49,191.23 274.85,196.25 280.20,201.11 285.56,205.80 290.91,210.31 296.26,214.62 301.62,218.73 306.97,222.62 312.32,226.29 317.68,229.72 323.03,232.91 328.38,235.85 333.74,238.52 339.09,240.93 344.44,243.06 349.80,244.92 355.15,246.50 360.51,247.78 365.86,248.78 371.21,249.48 376.57,249.89 381.92,250.00 387.27,249.81 392.63,249.33 397.98,248.56 403.33,247.49 408.69,246.13 414.04,244.48 419.39,242.56 424.75,240.35 430.10,237.88 435.45,235.14 440.81,232.14 446.16,228.89 451.52,225.40 456.87,221.67 462.22,217.72 467.58,213.56 472.93,209.20 478.28,204.65 483.64,199.91 488.99,195.01 494.34,189.95 499.70,184.76 505.05,179.43 510.40,173.99 515.76,168.45 521.11,162.82 526.46,157.12 531.82,151.37 537.17,145.57 542.53,139.74 547.88,133.91 553.23,128.07 558.59,122.25 563.94,116.47 569.29,110.73 574.65,105.06 580.00,99.46" stroke="red" /><polyline fill="none" points="50.00,99.46 55.35,105.06 60.71,110.73 66.06,116.47 71.41,122.25 76.77,128.07 82.12,133.91 87.47,139.74 92.83,145.57 98.18,151.37 103.54,157.12 108.89,162.82 114.24,168.45 119.60,173.99 124.95,179.43 130.30,184.76 135.66,189.95 141.01,195.01 146.36,199.91 151.72,204.65 157.07,209.20 162.42,213.56 167.78,217.72 173.13,221.67 178.48,225.40 183.84,228.89 189.19,232.14 194.55,235.14 199.90,237.88 205.25,240.35 210.61,242.56 215.96,244.48 221.31,246.13 226.67,247.49 232.02,248.56 237.37,249.33 242.73,249.81 248.08,250.00 253.43,249.89 258.79,249.48 264.14,248.78 269.49,247.78 274.85,246.50 280.20,244.92 285.56,243.06 290.91,240.93 296.26,238.52 301.62,235.85 306.97,232.91 312.32,229.72 317.68,226.29 323.03,222.62 328.38,218.73 333.74,214.62 339.09,210.31 344.44,205.80 349.80,201.11 355.15,196.25 360.51,191.23 365.86,186.07 371.21,180.77 376.57,175.36 381.92,169.84 387.27,164.24 392.63,158.55 397.98,152.81 403.33,147.02 408.69,141.20 414.04,135.36 419.39,129.53 424.75,123.71 430.10,117.91 435.45,112.16 440.81,106.47 446.16,100.85 451.52,95.32 456.87,89.90 462.22,84.59 467.58,79.41 472.93,74.37 478.28,69.49 483.64,64.78 488.99,60.24 494.34,55.91 499.70,51.77 505.05,47.85 510.40,44.15 515.76,40.69 521.11,37.47 526.46,34.51 531.82,31.80 537.17,29.36 542.53,27.19 547.88,25.30 553.23,23.69 558.59,22.36 563.94,21.33 569.29,20.59 574.65,20.15 580.00,20.00" stroke="green" /><polyline fill="none" points="50.00,250.00 55.35,249.94 60.71,249.77 66.06,249.48 71.41,249.07 76.77,248.56 82.12,247.92 87.47,247.17 92.83,246.31 98.18,245.34 103.54,244.26 108.89,243.06 114.24,241.76 119.60,240.35 124.95,238.84 130.30,237.22 135.66,235.49 141.01,233.67 146.36,231.74 151.72,229.72 157.07,227.61 162.42,225.40 167.78,223.10 173.13,220.71 178.48,218.23 183.84,215.67 189.19,213.03 194.55,210.31 199.90,207.51 205.25,204.65 210.61,201.71 215.96,198.70 221.31,195.63 226.67,192.50 232.02,189.31 237.37,186.07 242.73,182.77 248.08,179.43 253.43,176.04 258.79,172.61 264.14,169.15 269.49,165.64 274.85,162.11 280.20,158.55 285.56,154.97 290.91,151.37 296.26,147.75 301.62,144.11 306.97,140.47 312.32,136.82 317.68,133.18 323.03,129.53 328.38,125.89 333.74,122.25 339.09,118.63 344.44,115.03 349.80,111.45 355.15,107.89 360.51,104.36 365.86,100.85 371.21,97.39 376.57,93.96 381.92,90.57 387.27,87.23 392.63,83.93 397.98,80.69 403.33,77.50 408.69,74.37 414.04,71.30 419.39,68.29 424.75,65.35 430.10,62.49 435.45,59.69 440.81,56.97 446.16,54.33 451.52,51.77 456.87,49.29 462.22,46.90 467.58,44.60 472.93,42.39 478.28,40.28 483.64,38.26 488.99,36.33 494.34,34.51 499.70,32.78 505.05,31.16 510.40,29.65 515.76,28.24 521.11,26.94 526.46,25.74 531.82,24.66 537.17,23.69 542.53,22.83 547.88,22.08 553.23,21.44 558.59,20.93 563.94,20.52 569.29,20.23 574.65,20.06 580.00,20.00" stroke="blue" /><g stroke="black"><line x1="50.00" x2="50.00" y1="250.00" y2="260.00" /><line x1="315.00" x2="315.00" y1="250.00" y2="260.00" /><line x1="580.00" x2="580.00" y1="250.00" y2="260.00" /><line x1="116.25" x2="116.25" y1="250.00" y2="255.00" /><line x1="182.50" x2="182.50" y1="250.00" y2="255.00" /><line x1="248.75" x2="248.75" y1="250.00" y2="255.00" /><line x1="381.25" x2="381.25" y1="250.00" y2="255.00" /><line x1="447.50" x2="447.50" y1="250.00" y2="255.00" /><line x1="513.75" x2="513.75" y1="250.00" y2="255.00" /><g fill="black" font-family="Arial, sans-serif" font-size="10" stroke="none" text-anchor="middle"><text x="50.00" y="270.00">0.00</text><text x="315.00" y="270.00">0.50</text><text x="580.00" y="270.00">1.00</text></g><line x1="50.00" x2="580.00" y1="250.00" y2="250.00" /></g><g stroke="black"><line x1="50.00" x2="40.00" y1="250.00" y2="250.00" /><line x1="50.00" x2="40.00" y1="204.00" y2="204.00" /><line x1="50.00" x2="40.00" y1="158.00" y2="158.00" /><line x1="50.00" x2="40.00" y1="112.00" y2="112.00" /><line x1="50.00" x2="40.00" y1="66.00" y2="66.00" /><line x1="50.00" x2="40.00" y1="20.00" y2="20.00" /><line x1="50.00" x2="45.00" y1="227.00" y2="227.00" /><line x1="50.00" x2="45.00" y1="181.00" y2="181.00" /><line x1="50.00" x2="45.00" y1="135.00" y2="135.00" /><line x1="50.00" x2="45.00" y1="112.00" y2="112.00" /><line x1="50.00" x2="45.00" y1="89.00" y2="89.00" /><line x1="50.00" x2="45.00" y1="66.00" y2="66.00" /><line x1="50.00" x2="45.00" y1="43.00" y2="43.00" /><line x1="50.00" x2="45.00" y1="20.00" y2="20.00" /><g fill="black" font-family="Arial, sans-serif" font-size="10" stroke="none" text-anchor="end"><text x="35.00" y="250.00">0.00</text><text x="35.00" y="204.00">0.20</text><text x="35.00" y="158.00">0.40</text><text x="35.00" y="112.00">0.60</text><text x="35.00" y="66.00">0.80</text><text x="35.00" y="20.00">1.00</text></g><line x1="50.00" x2="50.00" y1="250.00" y2="20.00" /></g></g></svg>