<?xml version="1.0"?>
<svg height="300" version="1.1" width="600" xmlns:xlink="http://www.w3.org/1999/xlink" xmlns="http://www.w3.org/2000/svg"><rect fill="#ff4040" height="20" width="10" x="50.00" y="280.00" /><rect fill="#ff3947" height="20" width="10" x="55.25" y="280.00" /><rect fill="#fe324e" height="20" width="10" x="60.51" y="280.00" /><rect fill="#fd2c56" height="20" width="10" x="65.76" y="280.00" /><rect fill="#fb265d" height="20" width="10" x="71.01" y="280.00" /><rect fill="#f92065" height="20" width="10" x="76.26" y="280.00" /><rect fill="#f61b6d" height="20" width="10" x="81.52" y="280.00" /><rect fill="#f31675" height="20" width="10" x="86.77" y="280.00" /><rect fill="#ef127d" height="20" width="10" x="92.02" y="280.00" /><rect fill="#eb0e86" height="20" width="10" x="97.27" y="280.00" /><rect fill="#e60b8e" height="20" width="10" x="102.53" y="280.00" /><rect fill="#e10896" height="20" width="10" x="107.78" y="280.00" /><rect fill="#dc059e" height="20" width="10" x="113.03" y="280.00" /><rect fill="#d603a5" height="20" width="10" x="118.28" y="280.00" /><rect fill="#d002ad" height="20" width="10" x="123.54" y="280.00" /><rect fill="#c901b4" height="20" width="10" x="128.79" y="280.00" /><rect fill="#c300bc" height="20" width="10" x="134.04" y="280.00" /><rect fill="#bc00c3" height="20" width="10" x="139.29" y="280.00" /><rect fill="#b401c9" height="20" width="10" x="144.55" y="280.00" /><rect fill="#ad02d0" height="20" width="10" x="149.80" y="280.00" /><rect fill="#a503d6" height="20" width="10" x="155.05" y="280.00" /><rect fill="#9e05dc" height="20" width="10" x="160.30" y="280.00" /><rect fill="#9608e1" height="20" width="10" x="165.56" y="280.00" /><rect fill="#8e0be6" height="20" width="10" x="170.81" y="280.00" /><rect fill="#860eeb" height="20" width="10" x="176.06" y="280.00" /><rect fill="#7d12ef" height="20" width="10" x="181.31" y="280.00" /><rect fill="#7516f3" height="20" width="10" x="186.57" y="280.00" /><rect fill="#7516f3" height="20" width="10" x="191.82" y="280.00" /><rect fill="#6520f9" height="20" width="10" x="197.07" y="280.00" /><rect fill="#5e26fb" height="20" width="10" x="202.32" y="280.00" /><rect fill="#562cfd" height="20" width="10" x="207.58" y="280.00" /><rect fill="#4e32fe" height="20" width="10" x="212.83" y="280.00" /><rect fill="#4739ff" height="20" width="10" x="218.08" y="280.00" /><rect fill="#4040ff" height="20" width="10" x="223.33" y="280.00" /><rect fill="#3947ff" height="20" width="10" x="228.59" y="280.00" /><rect fill="#324efe" height="20" width="10" x="233.84" y="280.00" /><rect fill="#2c56fd" height="20" width="10" x="239.09" y="280.00" /><rect fill="#265dfb" height="20" width="10" x="244.34" y="280.00" /><rect fill="#2065f9" height="20" width="10" x="249.60" y="280.00" /><rect fill="#1b6df6" height="20" width="10" x="254.85" y="280.00" /><rect fill="#1675f3" height="20" width="10" x="260.10" y="280.00" /><rect fill="#127def" height="20" width="10" x="265.35" y="280.00" /><rect fill="#0e86eb" height="20" width="10" x="270.61" y="280.00" /><rect fill="#0b8ee6" height="20" width="10" x="275.86" y="280.00" /><rect fill="#0896e1" height="20" width="10" x="281.11" y="280.00" /><rect fill="#059edc" height="20" width="10" x="286.36" y="280.00" /><rect fill="#03a5d6" height="20" width="10" x="291.62" y="280.00" /><rect fill="#02add0" height="20" width="10" x="296.87" y="280.00" /><rect fill="#01b4ca" height="20" width="10" x="302.12" y="280.00" /><rect fill="#00bcc3" height="20" width="10" x="307.37" y="280.00" /><rect fill="#00c3bc" height="20" width="10" x="312.63" y="280.00" /><rect fill="#01c9b5" height="20" width="10" x="317.88" y="280.00" /><rect fill="#02d0ad" height="20" width="10" x="323.13" y="280.00" /><rect fill="#03d6a5" height="20" width="10" x="328.38" y="280.00" /><rect fill="#03d6a5" height="20" width="10" x="333.64" y="280.00" /><rect fill="#08e196" height="20" width="10" x="338.89" y="280.00" /><rect fill="#0be68e" height="20" width="10" x="344.14" y="280.00" /><rect fill="#0eeb86" height="20" width="10" x="349.39" y="280.00" /><rect fill="#12ef7e" height="20" width="10" x="354.65" y="280.00" /><rect fill="#12ef7e" height="20" width="10" x="359.90" y="280.00" /><rect fill="#1bf66d" height="20" width="10" x="365.15" y="280.00" /><rect fill="#20f965" height="20" width="10" x="370.40" y="280.00" /><rect fill="#26fb5e" height="20" width="10" x="375.66" y="280.00" /><rect fill="#2cfd56" height="20" width="10" x="380.91" y="280.00" /><rect fill="#32fe4e" height="20" width="10" x="386.16" y="280.00" /><rect fill="#39ff47" height="20" width="10" x="391.41" y="280.00" /><rect fill="#40ff40" height="20" width="10" x="396.67" y="280.00" /><rect fill="#47ff39" height="20" width="10" x="401.92" y="280.00" /><rect fill="#4efe32" height="20" width="10" x="407.17" y="280.00" /><rect fill="#56fd2c" height="20" width="10" x="412.42" y="280.00" /><rect fill="#5efb26" height="20" width="10" x="417.68" y="280.00" /><rect fill="#65f921" height="20" width="10" x="422.93" y="280.00" /><rect fill="#6df61b" height="20" width="10" x="428.18" y="280.00" /><rect fill="#75f317" height="20" width="10" x="433.43" y="280.00" /><rect fill="#7def12" height="20" width="10" x="438.69" y="280.00" /><rect fill="#86eb0e" height="20" width="10" x="443.94" y="280.00" /><rect fill="#8ee60b" height="20" width="10" x="449.19" y="280.00" /><rect fill="#96e108" height="20" width="10" x="454.44" y="280.00" /><rect fill="#9edc05" height="20" width="10" x="459.70" y="280.00" /><rect fill="#a5d603" height="20" width="10" x="464.95" y="280.00" /><rect fill="#add002" height="20" width="10" x="470.20" y="280.00" /><rect fill="#b4c901" height="20" width="10" x="475.45" y="280.00" /><rect fill="#bcc300" height="20" width="10" x="480.71" y="280.00" /><rect fill="#c3bc00" height="20" width="10" x="485.96" y="280.00" /><rect fill="#c9b401" height="20" width="10" x="491.21" y="280.00" /><rect fill="#d0ad02" height="20" width="10" x="496.46" y="280.00" /><rect fill="#d6a503" height="20" width="10" x="501.72" y="280.00" /><rect fill="#dc9e05" height="20" width="10" x="506.97" y="280.00" /><rect fill="#e19608" height="20" width="10" x="512.22" y="280.00" /><rect fill="#e68e0b" height="20" width="10" x="517.47" y="280.00" /><rect fill="#eb860e" height="20" width="10" x="522.73" y="280.00" /><rect fill="#ef7e12" height="20" width="10" x="527.98" y="280.00" /><rect fill="#f37516" height="20" width="10" x="533.23" y="280.00" /><rect fill="#f66d1b" height="20" width="10" x="538.48" y="280.00" /><rect fill="#f96520" height="20" width="10" x="543.74" y="280.00" /><rect fill="#fb5e26" height="20" width="10" x="548.99" y="280.00" /><rect fill="#fd562c" height="20" width="10" x="554.24" y="280.00" /><rect fill="#fe4e32" height="20" width="10" x="559.49" y="280.00" /><rect fill="#ff4739" height="20" width="10" x="564.75" y="280.00" /><rect fill="#ff4040" height="20" width="10" x="570.00" y="280.00" /><g><g stroke-dasharray="1 1" stroke="#ccc"><line x1="116.25" x2="116.25" y1="250.00" y2="20.00" /><line x1="182.50" x2="182.50" y1="250.00" y2="20.00" /><line x1="248.75" x2="248.75" y1="250.00" y2="20.00" /><line x1="381.25" x2="381.25" y1="250.00" y2="20.00" /><line x1="447.50" x2="447.50" y1="250.00" y2="20.00" /><line x1="513.75" x2="513.75" y1="250.00" y2="20.00" /><line x1="50.00" x2="50.00" y1="250.00" y2="20.00" /><line x1="315.00" x2="315.00" y1="250.00" y2="20.00" /><line x1="580.00" x2="580.00" y1="250.00" y2="20.00" /><line x1="50.00" x2="580.00" y1="227.00" y2="227.00" /><line x1="50.00" x2="580.00" y1="181.00" y2="181.00" /><line x1="50.00" x2="580.00" y1="135.00" y2="135.00" /><line x1="50.00" x2="580.00" y1="112.00" y2="112.00" /><line x1="50.00" x2="580.00" y1="89.00" y2="89.00" /><line x1="50.00" x2="580.00" y1="66.00" y2="66.00" /><line x1="50.00" x2="580.00" y1="43.00" y2="43.00" /><line x1="50.00" x2="580.00" y1="20.00" y2="20.00" /><line x1="50.00" x2="580.00" y1="250.00" y2="250.00" /><line x1="50.00" x2="580.00" y1="204.00" y2="204.00" /><line x1="50.00" x2="580.00" y1="158.00" y2="158.00" /><line x1="50.00" x2="580.00" y1="112.00" y2="112.00" /><line x1="50.00" x2="580.00" y1="66.00" y2="66.00" /><line x1="50.00" x2="580.00" y1="20.00" y2="20.00" /></g><polyline fill="none" points="50.00,20.00 55.35,20.23 60.71,20.93 66.06,22.08 71.41,23.69 76.77,25.74 82.12,28.24 87.47,31.16 92.83,34.51 98.18,38.26 103.54,42.39 108.89,46.90 114.24,51.77 119.60,56.97 124.95,62.49 130.30,68.29 135.66,74.37 141.01,80.69 146.36,87.23 151.72,93.96 157.07,100.85 162.42,107.89 167.78,115.03 173.13,122.25 178.48,129.53 183.84,136.82 189.19,144.11 194.55,151.37 199.90,158.55 205.25,165.64 210.61,172.61 215.96,179.43 221.31,186.07 226.67,192.50 232.02,198.70 237.37,204.65 242.73,210.31 248.08,215.67 253.43,220.71 258.79,225.40 264.14,229.72 269.49,233.67 274.85,237.22 280.20,240.35 285.56,243.06 290.91,245.34 296.26,247.17 301.62,248.56 306.97,249.48 312.32,249.94 317.68,249.94 323.03,249.48 328.38,248.56 333.74,247.17 339.09,245.34 344.44,243.06 349.80,240.35 355.15,237.22 360.51,233.67 365.86,229.72 371.21,225.40 376.57,220.71 381.92,215.67 387.27,210.31 392.63,204.65 397.98,198.70 403.33,192.50 408.69,186.07 414.04,179.43 419.39,172.61 424.75,165.64 430.10,158.55 435.45,151.37 440.81,144.11 446.16,136.82 451.52,129.53 456.87,122.25 462.22,115.03 467.58,107.89 472.93,100.85 478.28,93.96 483.64,87.23 488.99,80.69 494.34,74.37 499.70,68.29 505.05,62.49 510.40,56.97 515.76,51.77 521.11,46.90 526.46,42.39 531.82,38.26 537.17,34.51 542.53,31.16 547.88,28.24 553.23,25.74 558.59,23.69 563.94,22.08 569.29,20.93 574.65,20.23 580.00,20.00" stroke="red" /><polyline fill="none" points="50.00,192.48 55.35,198.68 60.71,204.63 66.06,210.29 71.41,215.65 76.77,220.69 82.12,225.38 87.47,229.71 92.83,233.66 98.18,237.21 103.54,240.34 108.89,243.06 114.24,245.33 119.60,247.17 124.95,248.55 130.30,249.48 135.66,249.94 141.01,249.94 146.36,249.48 151.72,248.56 157.07,247.18 162.42,245.35 167.78,243.07 173.13,240.36 178.48,237.23 183.84,233.68 189.19,229.74 194.55,225.41 199.90,220.72 205.25,215.69 210.61,210.33 215.96,204.66 221.31,198.72 226.67,192.52 232.02,186.09 237.37,179.45 242.73,172.64 248.08,165.67 253.43,158.58 258.79,151.39 264.14,144.14 269.49,136.85 274.85,129.55 280.20,122.28 285.56,115.05 290.91,107.91 296.26,100.88 301.62,93.98 306.97,87.25 312.32,80.71 317.68,74.39 323.03,68.31 328.38,62.51 333.74,56.99 339.09,51.79 344.44,46.92 349.80,42.41 355.15,38.27 360.51,34.52 365.86,31.17 371.21,28.25 376.57,25.75 381.92,23.69 387.27,22.08 392.63,20.93 397.98,20.23 403.33,20.00 408.69,20.23 414.04,20.92 419.39,22.07 424.75,23.68 430.10,25.73 435.45,28.23 440.81,31.15 446.16,34.50 451.52,38.24 456.87,42.38 462.22,46.89 467.58,51.75 472.93,56.95 478.28,62.47 483.64,68.27 488.99,74.35 494.34,80.67 499.70,87.21 505.05,93.94 510.40,100.83 515.76,107.86 521.11,115.01 526.46,122.23 531.82,129.50 537.17,136.80 542.53,144.09 547.88,151.34 553.23,158.53 558.59,165.62 563.94,172.59 569.29,179.41 574.65,186.05 580.00,192.48" stroke="green" /><polyline fill="none" points="50.00,192.54 55.35,186.11 60.71,179.47 66.06,172.66 71.41,165.69 76.77,158.60 82.12,151.41 87.47,144.16 92.83,136.87 98.18,129.58 103.54,122.30 108.89,115.08 114.24,107.93 119.60,100.90 124.95,94.00 130.30,87.27 135.66,80.73 141.01,74.41 146.36,68.33 151.72,62.52 157.07,57.01 162.42,51.80 167.78,46.94 173.13,42.42 178.48,38.28 183.84,34.53 189.19,31.18 194.55,28.26 199.90,25.76 205.25,23.70 210.61,22.09 215.96,20.93 221.31,20.23 226.67,20.00 232.02,20.23 237.37,20.92 242.73,22.07 248.08,23.67 253.43,25.73 258.79,28.22 264.14,31.14 269.49,34.48 274.85,38.23 280.20,42.37 285.56,46.87 290.91,51.74 296.26,56.94 301.62,62.45 306.97,68.25 312.32,74.33 317.68,80.65 323.03,87.18 328.38,93.91 333.74,100.81 339.09,107.84 344.44,114.98 349.80,122.21 355.15,129.48 360.51,136.78 365.86,144.07 371.21,151.32 376.57,158.51 381.92,165.60 387.27,172.57 392.63,179.39 397.98,186.02 403.33,192.46 408.69,198.66 414.04,204.61 419.39,210.27 424.75,215.64 430.10,220.67 435.45,225.37 440.81,229.70 446.16,233.64 451.52,237.19 456.87,240.33 462.22,243.05 467.58,245.33 472.93,247.16 478.28,248.55 483.64,249.47 488.99,249.94 494.34,249.94 499.70,249.48 505.05,248.56 510.40,247.19 515.76,245.36 521.11,243.08 526.46,240.37 531.82,237.24 537.17,233.69 542.53,229.75 547.88,225.43 553.23,220.74 558.59,215.70 563.94,210.35 569.29,204.68 574.65,198.74 580.00,192.54" stroke="blue" /><g stroke="black"><line x1="50.00" x2="50.00" y1="250.00" y2="260.00" /><line x1="315.00" x2="315.00" y1="250.00" y2="260.00" /><line x1="580.00" x2="580.00" y1="250.00" y2="260.00" /><line x1="116.25" x2="116.25" y1="250.00" y2="255.00" /><line x1="182.50" x2="182.50" y1="250.00" y2="255.00" /><line x1="248.75" x2="248.75" y1="250.00" y2="255.00" /><line x1="381.25" x2="381.25" y1="250.00" y2="255.00" /><line x1="447.50" x2="447.50" y1="250.00" y2="255.00" /><line x1="513.75" x2="513.75" y1="250.00" y2="255.00" /><g fill="black" font-family="Arial, sans-serif" font-size="10" stroke="none" text-anchor="middle"><text x="50.00" y="270.00">0.00</text><text x="315.00" y="270.00">0.50</text><text x="580.00" y="270.00">1.00</text></g><line x1="50.00" x2="580.00" y1="250.00" y2="250.00" /></g><g stroke="black"><line x1="50.00" x2="40.00" y1="250.00" y2="250.00" /><line x1="50.00" x2="40.00" y1="204.00" y2="204.00" /><line x1="50.00" x2="40.00" y1="158.00" y2="158.00" /><line x1="50.00" x2="40.00" y1="112.00" y2="112.00" /><line x1="50.00" x2="40.00" y1="66.00" y2="66.00" /><line x1="50.00" x2="40.00" y1="20.00" y2="20.00" /><line x1="50.00" x2="45.00" y1="227.00" y2="227.00" /><line x1="50.00" x2="45.00" y1="181.00" y2="181.00" /><line x1="50.00" x2="45.00" y1="135.00" y2="135.00" /><line x1="50.00" x2="45.00" y1="112.00" y2="112.00" /><line x1="50.00" x2="45.00" y1="89.00" y2="89.00" /><line x1="50.00" x2="45.00" y1="66.00" y2="66.00" /><line x1="50.00" x2="45.00" y1="43.00" y2="43.00" /><line x1="50.00" x2="45.00" y1="20.00" y2="20.00" /><g fill="black" font-family="Arial, sans-serif" font-size="10" stroke="none" text-anchor="end"><text x="35.00" y="250.00">0.00</text><text x="35.00" y="204.00">0.20</text><text x="35.00" y="158.00">0.40</text><text x="35.00" y="112.00">0.60</text><text x="35.00" y="66.00">0.80</text><text x="35.00" y="20.00">1.00</text></g><line x1="50.00" x2="50.00" y1="250.00" y2="20.00" /></g></g></svg>