<?xml version="1.0"?>
<svg height="300" version="1.1" width="600" xmlns:xlink="http://www.w3.org/1999/xlink" xmlns="http://www.w3.org/2000/svg"><rect fill="#ff0000" height="20" width="10" x="50.00" y="280.00" /><rect fill="#ff000e" height="20" width="10" x="55.25" y="280.00" /><rect fill="#ff001d" height="20" width="10" x="60.51" y="280.00" /><rect fill="#ff002c" height="20" width="10" x="65.76" y="280.00" /><rect fill="#ff003b" height="20" width="10" x="71.01" y="280.00" /><rect fill="#ff004b" height="20" width="10" x="76.26" y="280.00" /><rect fill="#ff005b" height="20" width="10" x="81.52" y="280.00" /><rect fill="#ff006b" height="20" width="10" x="86.77" y="280.00" /><rect fill="#ff007b" height="20" width="10" x="92.02" y="280.00" /><rect fill="#ff008c" height="20" width="10" x="97.27" y="280.00" /><rect fill="#ff009c" height="20" width="10" x="102.53" y="280.00" /><rect fill="#ff00ac" height="20" width="10" x="107.78" y="280.00" /><rect fill="#ff00bc" height="20" width="10" x="113.03" y="280.00" /><rect fill="#ff00cb" height="20" width="10" x="118.28" y="280.00" /><rect fill="#ff00da" height="20" width="10" x="123.54" y="280.00" /><rect fill="#ff00e9" height="20" width="10" x="128.79" y="280.00" /><rect fill="#ff00f8" height="20" width="10" x="134.04" y="280.00" /><rect fill="#f800ff" height="20" width="10" x="139.29" y="280.00" /><rect fill="#e900ff" height="20" width="10" x="144.55" y="280.00" /><rect fill="#db00ff" height="20" width="10" x="149.80" y="280.00" /><rect fill="#cb00ff" height="20" width="10" x="155.05" y="280.00" /><rect fill="#bc00ff" height="20" width="10" x="160.30" y="280.00" /><rect fill="#ac00ff" height="20" width="10" x="165.56" y="280.00" /><rect fill="#9c00ff" height="20" width="10" x="170.81" y="280.00" /><rect fill="#8c00ff" height="20" width="10" x="176.06" y="280.00" /><rect fill="#7b00ff" height="20" width="10" x="181.31" y="280.00" /><rect fill="#6b00ff" height="20" width="10" x="186.57" y="280.00" /><rect fill="#6b00ff" height="20" width="10" x="191.82" y="280.00" /><rect fill="#4b00ff" height="20" width="10" x="197.07" y="280.00" /><rect fill="#3c00ff" height="20" width="10" x="202.32" y="280.00" /><rect fill="#2c00ff" height="20" width="10" x="207.58" y="280.00" /><rect fill="#1d00ff" height="20" width="10" x="212.83" y="280.00" /><rect fill="#0e00ff" height="20" width="10" x="218.08" y="280.00" /><rect fill="#0000ff" height="20" width="10" x="223.33" y="280.00" /><rect fill="#000eff" height="20" width="10" x="228.59" y="280.00" /><rect fill="#001dff" height="20" width="10" x="233.84" y="280.00" /><rect fill="#002cff" height="20" width="10" x="239.09" y="280.00" /><rect fill="#003bff" height="20" width="10" x="244.34" y="280.00" /><rect fill="#004bff" height="20" width="10" x="249.60" y="280.00" /><rect fill="#005bff" height="20" width="10" x="254.85" y="280.00" /><rect fill="#006bff" height="20" width="10" x="260.10" y="280.00" /><rect fill="#007bff" height="20" width="10" x="265.35" y="280.00" /><rect fill="#008cff" height="20" width="10" x="270.61" y="280.00" /><rect fill="#009cff" height="20" width="10" x="275.86" y="280.00" /><rect fill="#00acff" height="20" width="10" x="281.11" y="280.00" /><rect fill="#00bcff" height="20" width="10" x="286.36" y="280.00" /><rect fill="#00cbff" height="20" width="10" x="291.62" y="280.00" /><rect fill="#00daff" height="20" width="10" x="296.87" y="280.00" /><rect fill="#00e9ff" height="20" width="10" x="302.12" y="280.00" /><rect fill="#00f8ff" height="20" width="10" x="307.37" y="280.00" /><rect fill="#00fff8" height="20" width="10" x="312.63" y="280.00" /><rect fill="#00ffea" height="20" width="10" x="317.88" y="280.00" /><rect fill="#00ffdb" height="20" width="10" x="323.13" y="280.00" /><rect fill="#00ffcb" height="20" width="10" x="328.38" y="280.00" /><rect fill="#00ffcb" height="20" width="10" x="333.64" y="280.00" /><rect fill="#00ffac" height="20" width="10" x="338.89" y="280.00" /><rect fill="#00ff9c" height="20" width="10" x="344.14" y="280.00" /><rect fill="#00ff8c" height="20" width="10" x="349.39" y="280.00" /><rect fill="#00ff7c" height="20" width="10" x="354.65" y="280.00" /><rect fill="#00ff7c" height="20" width="10" x="359.90" y="280.00" /><rect fill="#00ff5b" height="20" width="10" x="365.15" y="280.00" /><rect fill="#00ff4b" height="20" width="10" x="370.40" y="280.00" /><rect fill="#00ff3c" height="20" width="10" x="375.66" y="280.00" /><rect fill="#00ff2c" height="20" width="10" x="380.91" y="280.00" /><rect fill="#00ff1d" height="20" width="10" x="386.16" y="280.00" /><rect fill="#00ff0e" height="20" width="10" x="391.41" y="280.00" /><rect fill="#00ff00" height="20" width="10" x="396.67" y="280.00" /><rect fill="#0eff00" height="20" width="10" x="401.92" y="280.00" /><rect fill="#1dff00" height="20" width="10" x="407.17" y="280.00" /><rect fill="#2cff00" height="20" width="10" x="412.42" y="280.00" /><rect fill="#3cff00" height="20" width="10" x="417.68" y="280.00" /><rect fill="#4bff00" height="20" width="10" x="422.93" y="280.00" /><rect fill="#5bff00" height="20" width="10" x="428.18" y="280.00" /><rect fill="#6bff00" height="20" width="10" x="433.43" y="280.00" /><rect fill="#7bff00" height="20" width="10" x="438.69" y="280.00" /><rect fill="#8cff00" height="20" width="10" x="443.94" y="280.00" /><rect fill="#9cff00" height="20" width="10" x="449.19" y="280.00" /><rect fill="#acff00" height="20" width="10" x="454.44" y="280.00" /><rect fill="#bcff00" height="20" width="10" x="459.70" y="280.00" /><rect fill="#cbff00" height="20" width="10" x="464.95" y="280.00" /><rect fill="#dbff00" height="20" width="10" x="470.20" y="280.00" /><rect fill="#e9ff00" height="20" width="10" x="475.45" y="280.00" /><rect fill="#f8ff00" height="20" width="10" x="480.71" y="280.00" /><rect fill="#fff800" height="20" width="10" x="485.96" y="280.00" /><rect fill="#ffe900" height="20" width="10" x="491.21" y="280.00" /><rect fill="#ffdb00" height="20" width="10" x="496.46" y="280.00" /><rect fill="#ffcb00" height="20" width="10" x="501.72" y="280.00" /><rect fill="#ffbc00" height="20" width="10" x="506.97" y="280.00" /><rect fill="#ffac00" height="20" width="10" x="512.22" y="280.00" /><rect fill="#ff9c00" height="20" width="10" x="517.47" y="280.00" /><rect fill="#ff8c00" height="20" width="10" x="522.73" y="280.00" /><rect fill="#ff7c00" height="20" width="10" x="527.98" y="280.00" /><rect fill="#ff6b00" height="20" width="10" x="533.23" y="280.00" /><rect fill="#ff5b00" height="20" width="10" x="538.48" y="280.00" /><rect fill="#ff4b00" height="20" width="10" x="543.74" y="280.00" /><rect fill="#ff3c00" height="20" width="10" x="548.99" y="280.00" /><rect fill="#ff2c00" height="20" width="10" x="554.24" y="280.00" /><rect fill="#ff1d00" height="20" width="10" x="559.49" y="280.00" /><rect fill="#ff0e00" height="20" width="10" x="564.75" y="280.00" /><rect fill="#ff0000" height="20" width="10" x="570.00" y="280.00" /><g><g stroke-dasharray="1 1" stroke="#ccc"><line x1="116.25" x2="116.25" y1="250.00" y2="20.00" /><line x1="182.50" x2="182.50" y1="250.00" y2="20.00" /><line x1="248.75" x2="248.75" y1="250.00" y2="20.00" /><line x1="381.25" x2="381.25" y1="250.00" y2="20.00" /><line x1="447.50" x2="447.50" y1="250.00" y2="20.00" /><line x1="513.75" x2="513.75" y1="250.00" y2="20.00" /><line x1="50.00" x2="50.00" y1="250.00" y2="20.00" /><line x1="315.00" x2="315.00" y1="250.00" y2="20.00" /><line x1="580.00" x2="580.00" y1="250.00" y2="20.00" /><line x1="50.00" x2="580.00" y1="227.00" y2="227.00" /><line x1="50.00" x2="580.00" y1="181.00" y2="181.00" /><line x1="50.00" x2="580.00" y1="135.00" y2="135.00" /><line x1="50.00" x2="580.00" y1="112.00" y2="112.00" /><line x1="50.00" x2="580.00" y1="89.00" y2="89.00" /><line x1="50.00" x2="580.00" y1="66.00" y2="66.00" /><line x1="50.00" x2="580.00" y1="43.00" y2="43.00" /><line x1="50.00" x2="580.00" y1="20.00" y2="20.00" /><line x1="50.00" x2="580.00" y1="250.00" y2="250.00" /><line x1="50.00" x2="580.00" y1="204.00" y2="204.00" /><line x1="50.00" x2="580.00" y1="158.00" y2="158.00" /><line x1="50.00" x2="580.00" y1="112.00" y2="112.00" /><line x1="50.00" x2="580.00" y1="66.00" y2="66.00" /><line x1="50.00" x2="580.00" y1="20.00" y2="20.00" /></g><polyline fill="none" points="50.00,20.00 55.35,20.00 60.71,20.00 66.06,20.00 71.41,20.00 76.77,20.00 82.12,20.00 87.47,20.00 92.83,20.00 98.18,20.00 103.54,20.00 108.89,20.00 114.24,20.00 119.60,20.00 124.95,20.00 130.30,20.00 135.66,20.00 141.01,26.38 146.36,39.45 151.72,52.92 157.07,66.71 162.42,80.78 167.78,95.06 173.13,109.51 178.48,124.06 183.84,138.65 189.19,153.23 194.55,167.73 199.90,182.11 205.25,196.29 210.61,210.23 215.96,223.86 221.31,237.14 226.67,250.00 232.02,250.00 237.37,250.00 242.73,250.00 248.08,250.00 253.43,250.00 258.79,250.00 264.14,250.00 269.49,250.00 274.85,250.00 280.20,250.00 285.56,250.00 290.91,250.00 296.26,250.00 301.62,250.00 306.97,250.00 312.32,250.00 317.68,250.00 323.03,250.00 328.38,250.00 333.74,250.00 339.09,250.00 344.44,250.00 349.80,250.00 355.15,250.00 360.51,250.00 365.86,250.00 371.21,250.00 376.57,250.00 381.92,250.00 387.27,250.00 392.63,250.00 397.98,250.00 403.33,250.00 408.69,237.14 414.04,223.86 419.39,210.23 424.75,196.29 430.10,182.11 435.45,167.73 440.81,153.23 446.16,138.65 451.52,124.06 456.87,109.51 462.22,95.06 467.58,80.78 472.93,66.71 478.28,52.92 483.64,39.45 488.99,26.38 494.34,20.00 499.70,20.00 505.05,20.00 510.40,20.00 515.76,20.00 521.11,20.00 526.46,20.00 531.82,20.00 537.17,20.00 542.53,20.00 547.88,20.00 553.23,20.00 558.59,20.00 563.94,20.00 569.29,20.00 574.65,20.00 580.00,20.00" stroke="red" /><polyline fill="none" points="50.00,249.96 55.35,250.00 60.71,250.00 66.06,250.00 71.41,250.00 76.77,250.00 82.12,250.00 87.47,250.00 92.83,250.00 98.18,250.00 103.54,250.00 108.89,250.00 114.24,250.00 119.60,250.00 124.95,250.00 130.30,250.00 135.66,250.00 141.01,250.00 146.36,250.00 151.72,250.00 157.07,250.00 162.42,250.00 167.78,250.00 173.13,250.00 178.48,250.00 183.84,250.00 189.19,250.00 194.55,250.00 199.90,250.00 205.25,250.00 210.61,250.00 215.96,250.00 221.31,250.00 226.67,250.00 232.02,237.18 237.37,223.90 242.73,210.27 248.08,196.34 253.43,182.15 258.79,167.78 264.14,153.28 269.49,138.70 274.85,124.10 280.20,109.56 285.56,95.11 290.91,80.82 296.26,66.75 301.62,52.96 306.97,39.50 312.32,26.42 317.68,20.00 323.03,20.00 328.38,20.00 333.74,20.00 339.09,20.00 344.44,20.00 349.80,20.00 355.15,20.00 360.51,20.00 365.86,20.00 371.21,20.00 376.57,20.00 381.92,20.00 387.27,20.00 392.63,20.00 397.98,20.00 403.33,20.00 408.69,20.00 414.04,20.00 419.39,20.00 424.75,20.00 430.10,20.00 435.45,20.00 440.81,20.00 446.16,20.00 451.52,20.00 456.87,20.00 462.22,20.00 467.58,20.00 472.93,20.00 478.28,20.00 483.64,20.00 488.99,20.00 494.34,26.34 499.70,39.41 505.05,52.87 510.40,66.66 515.76,80.73 521.11,95.01 526.46,109.46 531.82,124.01 537.17,138.60 542.53,153.18 547.88,167.68 553.23,182.06 558.59,196.24 563.94,210.18 569.29,223.81 574.65,237.09 580.00,249.96" stroke="green" /><polyline fill="none" points="50.00,250.00 55.35,237.22 60.71,223.95 66.06,210.32 71.41,196.38 76.77,182.20 82.12,167.83 87.47,153.32 92.83,138.75 98.18,124.15 103.54,109.60 108.89,95.16 114.24,80.87 119.60,66.80 124.95,53.01 130.30,39.54 135.66,26.46 141.01,20.00 146.36,20.00 151.72,20.00 157.07,20.00 162.42,20.00 167.78,20.00 173.13,20.00 178.48,20.00 183.84,20.00 189.19,20.00 194.55,20.00 199.90,20.00 205.25,20.00 210.61,20.00 215.96,20.00 221.31,20.00 226.67,20.00 232.02,20.00 237.37,20.00 242.73,20.00 248.08,20.00 253.43,20.00 258.79,20.00 264.14,20.00 269.49,20.00 274.85,20.00 280.20,20.00 285.56,20.00 290.91,20.00 296.26,20.00 301.62,20.00 306.97,20.00 312.32,20.00 317.68,26.29 323.03,39.37 328.38,52.83 333.74,66.62 339.09,80.68 344.44,94.97 349.80,109.41 355.15,123.96 360.51,138.55 365.86,153.13 371.21,167.64 376.57,182.01 381.92,196.20 387.27,210.13 392.63,223.77 397.98,237.05 403.33,249.92 408.69,250.00 414.04,250.00 419.39,250.00 424.75,250.00 430.10,250.00 435.45,250.00 440.81,250.00 446.16,250.00 451.52,250.00 456.87,250.00 462.22,250.00 467.58,250.00 472.93,250.00 478.28,250.00 483.64,250.00 488.99,250.00 494.34,250.00 499.70,250.00 505.05,250.00 510.40,250.00 515.76,250.00 521.11,250.00 526.46,250.00 531.82,250.00 537.17,250.00 542.53,250.00 547.88,250.00 553.23,250.00 558.59,250.00 563.94,250.00 569.29,250.00 574.65,250.00 580.00,250.00" stroke="blue" /><g stroke="black"><line x1="50.00" x2="50.00" y1="250.00" y2="260.00" /><line x1="315.00" x2="315.00" y1="250.00" y2="260.00" /><line x1="580.00" x2="580.00" y1="250.00" y2="260.00" /><line x1="116.25" x2="116.25" y1="250.00" y2="255.00" /><line x1="182.50" x2="182.50" y1="250.00" y2="255.00" /><line x1="248.75" x2="248.75" y1="250.00" y2="255.00" /><line x1="381.25" x2="381.25" y1="250.00" y2="255.00" /><line x1="447.50" x2="447.50" y1="250.00" y2="255.00" /><line x1="513.75" x2="513.75" y1="250.00" y2="255.00" /><g fill="black" font-family="Arial, sans-serif" font-size="10" stroke="none" text-anchor="middle"><text x="50.00" y="270.00">0.00</text><text x="315.00" y="270.00">0.50</text><text x="580.00" y="270.00">1.00</text></g><line x1="50.00" x2="580.00" y1="250.00" y2="250.00" /></g><g stroke="black"><line x1="50.00" x2="40.00" y1="250.00" y2="250.00" /><line x1="50.00" x2="40.00" y1="204.00" y2="204.00" /><line x1="50.00" x2="40.00" y1="158.00" y2="158.00" /><line x1="50.00" x2="40.00" y1="112.00" y2="112.00" /><line x1="50.00" x2="40.00" y1="66.00" y2="66.00" /><line x1="50.00" x2="40.00" y1="20.00" y2="20.00" /><line x1="50.00" x2="45.00" y1="227.00" y2="227.00" /><line x1="50.00" x2="45.00" y1="181.00" y2="181.00" /><line x1="50.00" x2="45.00" y1="135.00" y2="135.00" /><line x1="50.00" x2="45.00" y1="112.00" y2="112.00" /><line x1="50.00" x2="45.00" y1="89.00" y2="89.00" /><line x1="50.00" x2="45.00" y1="66.00" y2="66.00" /><line x1="50.00" x2="45.00" y1="43.00" y2="43.00" /><line x1="50.00" x2="45.00" y1="20.00" y2="20.00" /><g fill="black" font-family="Arial, sans-serif" font-size="10" stroke="none" text-anchor="end"><text x="35.00" y="250.00">0.00</text><text x="35.00" y="204.00">0.20</text><text x="35.00" y="158.00">0.40</text><text x="35.00" y="112.00">0.60</text><text x="35.00" y="66.00">0.80</text><text x="35.00" y="20.00">1.00</text></g><line x1="50.00" x2="50.00" y1="250.00" y2="20.00" /></g></g></svg>