<?xml version="1.0"?>
<svg height="300" version="1.1" width="600" xmlns:xlink="http://www.w3.org/1999/xlink" xmlns="http://www.w3.org/2000/svg"><rect fill="#ff2b2b" height="20" width="10" x="50.00" y="280.00" /><rect fill="#ff2134" height="20" width="10" x="55.25" y="280.00" /><rect fill="#ff193e" height="20" width="10" x="60.51" y="280.00" /><rect fill="#ff1048" height="20" width="10" x="65.76" y="280.00" /><rect fill="#ff0852" height="20" width="10" x="71.01" y="280.00" /><rect fill="#ff015d" height="20" width="10" x="76.26" y="280.00" /><rect fill="#ff0067" height="20" width="10" x="81.52" y="280.00" /><rect fill="#ff0072" height="20" width="10" x="86.77" y="280.00" /><rect fill="#ff007d" height="20" width="10" x="92.02" y="280.00" /><rect fill="#ff0088" height="20" width="10" x="97.27" y="280.00" /><rect fill="#ff0092" height="20" width="10" x="102.53" y="280.00" /><rect fill="#ff009d" height="20" width="10" x="107.78" y="280.00" /><rect fill="#fa00a7" height="20" width="10" x="113.03" y="280.00" /><rect fill="#f300b2" height="20" width="10" x="118.28" y="280.00" /><rect fill="#eb00bc" height="20" width="10" x="123.54" y="280.00" /><rect fill="#e200c6" height="20" width="10" x="128.79" y="280.00" /><rect fill="#d900d0" height="20" width="10" x="134.04" y="280.00" /><rect fill="#d000d9" height="20" width="10" x="139.29" y="280.00" /><rect fill="#c600e2" height="20" width="10" x="144.55" y="280.00" /><rect fill="#bc00eb" height="20" width="10" x="149.80" y="280.00" /><rect fill="#b200f3" height="20" width="10" x="155.05" y="280.00" /><rect fill="#a800fa" height="20" width="10" x="160.30" y="280.00" /><rect fill="#9d00ff" height="20" width="10" x="165.56" y="280.00" /><rect fill="#9200ff" height="20" width="10" x="170.81" y="280.00" /><rect fill="#8800ff" height="20" width="10" x="176.06" y="280.00" /><rect fill="#7d00ff" height="20" width="10" x="181.31" y="280.00" /><rect fill="#7200ff" height="20" width="10" x="186.57" y="280.00" /><rect fill="#7200ff" height="20" width="10" x="191.82" y="280.00" /><rect fill="#5d01ff" height="20" width="10" x="197.07" y="280.00" /><rect fill="#5208ff" height="20" width="10" x="202.32" y="280.00" /><rect fill="#4810ff" height="20" width="10" x="207.58" y="280.00" /><rect fill="#3e19ff" height="20" width="10" x="212.83" y="280.00" /><rect fill="#3421ff" height="20" width="10" x="218.08" y="280.00" /><rect fill="#2b2bff" height="20" width="10" x="223.33" y="280.00" /><rect fill="#2134ff" height="20" width="10" x="228.59" y="280.00" /><rect fill="#193eff" height="20" width="10" x="233.84" y="280.00" /><rect fill="#1048ff" height="20" width="10" x="239.09" y="280.00" /><rect fill="#0852ff" height="20" width="10" x="244.34" y="280.00" /><rect fill="#015dff" height="20" width="10" x="249.60" y="280.00" /><rect fill="#0067ff" height="20" width="10" x="254.85" y="280.00" /><rect fill="#0072ff" height="20" width="10" x="260.10" y="280.00" /><rect fill="#007dff" height="20" width="10" x="265.35" y="280.00" /><rect fill="#0088ff" height="20" width="10" x="270.61" y="280.00" /><rect fill="#0092ff" height="20" width="10" x="275.86" y="280.00" /><rect fill="#009dff" height="20" width="10" x="281.11" y="280.00" /><rect fill="#00a8fa" height="20" width="10" x="286.36" y="280.00" /><rect fill="#00b2f3" height="20" width="10" x="291.62" y="280.00" /><rect fill="#00bceb" height="20" width="10" x="296.87" y="280.00" /><rect fill="#00c6e2" height="20" width="10" x="302.12" y="280.00" /><rect fill="#00d0d9" height="20" width="10" x="307.37" y="280.00" /><rect fill="#00d9d0" height="20" width="10" x="312.63" y="280.00" /><rect fill="#00e2c6" height="20" width="10" x="317.88" y="280.00" /><rect fill="#00ebbc" height="20" width="10" x="323.13" y="280.00" /><rect fill="#00f3b2" height="20" width="10" x="328.38" y="280.00" /><rect fill="#00f3b2" height="20" width="10" x="333.64" y="280.00" /><rect fill="#00ff9d" height="20" width="10" x="338.89" y="280.00" /><rect fill="#00ff92" height="20" width="10" x="344.14" y="280.00" /><rect fill="#00ff88" height="20" width="10" x="349.39" y="280.00" /><rect fill="#00ff7d" height="20" width="10" x="354.65" y="280.00" /><rect fill="#00ff7d" height="20" width="10" x="359.90" y="280.00" /><rect fill="#00ff67" height="20" width="10" x="365.15" y="280.00" /><rect fill="#01ff5d" height="20" width="10" x="370.40" y="280.00" /><rect fill="#08ff52" height="20" width="10" x="375.66" y="280.00" /><rect fill="#10ff48" height="20" width="10" x="380.91" y="280.00" /><rect fill="#19ff3e" height="20" width="10" x="386.16" y="280.00" /><rect fill="#21ff34" height="20" width="10" x="391.41" y="280.00" /><rect fill="#2bff2b" height="20" width="10" x="396.67" y="280.00" /><rect fill="#34ff21" height="20" width="10" x="401.92" y="280.00" /><rect fill="#3eff19" height="20" width="10" x="407.17" y="280.00" /><rect fill="#48ff10" height="20" width="10" x="412.42" y="280.00" /><rect fill="#52ff08" height="20" width="10" x="417.68" y="280.00" /><rect fill="#5dff01" height="20" width="10" x="422.93" y="280.00" /><rect fill="#67ff00" height="20" width="10" x="428.18" y="280.00" /><rect fill="#72ff00" height="20" width="10" x="433.43" y="280.00" /><rect fill="#7dff00" height="20" width="10" x="438.69" y="280.00" /><rect fill="#88ff00" height="20" width="10" x="443.94" y="280.00" /><rect fill="#92ff00" height="20" width="10" x="449.19" y="280.00" /><rect fill="#9dff00" height="20" width="10" x="454.44" y="280.00" /><rect fill="#a8fa00" height="20" width="10" x="459.70" y="280.00" /><rect fill="#b2f300" height="20" width="10" x="464.95" y="280.00" /><rect fill="#bceb00" height="20" width="10" x="470.20" y="280.00" /><rect fill="#c6e200" height="20" width="10" x="475.45" y="280.00" /><rect fill="#d0d900" height="20" width="10" x="480.71" y="280.00" /><rect fill="#d9d000" height="20" width="10" x="485.96" y="280.00" /><rect fill="#e2c600" height="20" width="10" x="491.21" y="280.00" /><rect fill="#ebbc00" height="20" width="10" x="496.46" y="280.00" /><rect fill="#f3b200" height="20" width="10" x="501.72" y="280.00" /><rect fill="#faa800" height="20" width="10" x="506.97" y="280.00" /><rect fill="#ff9d00" height="20" width="10" x="512.22" y="280.00" /><rect fill="#ff9200" height="20" width="10" x="517.47" y="280.00" /><rect fill="#ff8800" height="20" width="10" x="522.73" y="280.00" /><rect fill="#ff7d00" height="20" width="10" x="527.98" y="280.00" /><rect fill="#ff7200" height="20" width="10" x="533.23" y="280.00" /><rect fill="#ff6700" height="20" width="10" x="538.48" y="280.00" /><rect fill="#ff5d01" height="20" width="10" x="543.74" y="280.00" /><rect fill="#ff5208" height="20" width="10" x="548.99" y="280.00" /><rect fill="#ff4810" height="20" width="10" x="554.24" y="280.00" /><rect fill="#ff3e19" height="20" width="10" x="559.49" y="280.00" /><rect fill="#ff3421" height="20" width="10" x="564.75" y="280.00" /><rect fill="#ff2b2b" height="20" width="10" x="570.00" y="280.00" /><g><g stroke-dasharray="1 1" stroke="#ccc"><line x1="116.25" x2="116.25" y1="250.00" y2="20.00" /><line x1="182.50" x2="182.50" y1="250.00" y2="20.00" /><line x1="248.75" x2="248.75" y1="250.00" y2="20.00" /><line x1="381.25" x2="381.25" y1="250.00" y2="20.00" /><line x1="447.50" x2="447.50" y1="250.00" y2="20.00" /><line x1="513.75" x2="513.75" y1="250.00" y2="20.00" /><line x1="50.00" x2="50.00" y1="250.00" y2="20.00" /><line x1="315.00" x2="315.00" y1="250.00" y2="20.00" /><line x1="580.00" x2="580.00" y1="250.00" y2="20.00" /><line x1="50.00" x2="580.00" y1="227.00" y2="227.00" /><line x1="50.00" x2="580.00" y1="181.00" y2="181.00" /><line x1="50.00" x2="580.00" y1="135.00" y2="135.00" /><line x1="50.00" x2="580.00" y1="112.00" y2="112.00" /><line x1="50.00" x2="580.00" y1="89.00" y2="89.00" /><line x1="50.00" x2="580.00" y1="66.00" y2="66.00" /><line x1="50.00" x2="580.00" y1="43.00" y2="43.00" /><line x1="50.00" x2="580.00" y1="20.00" y2="20.00" /><line x1="50.00" x2="580.00" y1="250.00" y2="250.00" /><line x1="50.00" x2="580.00" y1="204.00" y2="204.00" /><line x1="50.00" x2="580.00" y1="158.00" y2="158.00" /><line x1="50.00" x2="580.00" y1="112.00" y2="112.00" /><line x1="50.00" x2="580.00" y1="66.00" y2="66.00" /><line x1="50.00" x2="580.00" y1="20.00" y2="20.00" /></g><polyline fill="none" points="50.00,20.00 55.35,20.00 60.71,20.00 66.06,20.00 71.41,20.00 76.77,20.00 82.12,20.00 87.47,20.00 92.83,20.00 98.18,20.00 103.54,20.00 108.89,20.00 114.24,24.14 119.60,31.07 124.95,38.41 130.30,46.15 135.66,54.24 141.01,62.66 146.36,71.37 151.72,80.33 157.07,89.52 162.42,98.89 167.78,108.40 173.13,118.02 178.48,127.71 183.84,137.43 189.19,147.14 194.55,156.80 199.90,166.37 205.25,175.82 210.61,185.10 215.96,194.18 221.31,203.02 226.67,211.59 232.02,219.85 237.37,227.77 242.73,235.31 248.08,242.45 253.43,249.16 258.79,250.00 264.14,250.00 269.49,250.00 274.85,250.00 280.20,250.00 285.56,250.00 290.91,250.00 296.26,250.00 301.62,250.00 306.97,250.00 312.32,250.00 317.68,250.00 323.03,250.00 328.38,250.00 333.74,250.00 339.09,250.00 344.44,250.00 349.80,250.00 355.15,250.00 360.51,250.00 365.86,250.00 371.21,250.00 376.57,249.16 381.92,242.45 387.27,235.31 392.63,227.77 397.98,219.85 403.33,211.59 408.69,203.02 414.04,194.18 419.39,185.10 424.75,175.82 430.10,166.37 435.45,156.80 440.81,147.14 446.16,137.43 451.52,127.71 456.87,118.02 462.22,108.40 467.58,98.89 472.93,89.52 478.28,80.33 483.64,71.37 488.99,62.66 494.34,54.24 499.70,46.15 505.05,38.41 510.40,31.07 515.76,24.14 521.11,20.00 526.46,20.00 531.82,20.00 537.17,20.00 542.53,20.00 547.88,20.00 553.23,20.00 558.59,20.00 563.94,20.00 569.29,20.00 574.65,20.00 580.00,20.00" stroke="red" /><polyline fill="none" points="50.00,211.56 55.35,219.82 60.71,227.74 66.06,235.29 71.41,242.43 76.77,249.14 82.12,250.00 87.47,250.00 92.83,250.00 98.18,250.00 103.54,250.00 108.89,250.00 114.24,250.00 119.60,250.00 124.95,250.00 130.30,250.00 135.66,250.00 141.01,250.00 146.36,250.00 151.72,250.00 157.07,250.00 162.42,250.00 167.78,250.00 173.13,250.00 178.48,250.00 183.84,250.00 189.19,250.00 194.55,250.00 199.90,249.18 205.25,242.47 210.61,235.34 215.96,227.79 221.31,219.88 226.67,211.62 232.02,203.05 237.37,194.21 242.73,185.13 248.08,175.85 253.43,166.40 258.79,156.83 264.14,147.17 269.49,137.46 274.85,127.74 280.20,118.05 285.56,108.43 290.91,98.92 296.26,89.55 301.62,80.36 306.97,71.40 312.32,62.69 317.68,54.27 323.03,46.17 328.38,38.44 333.74,31.09 339.09,24.16 344.44,20.00 349.80,20.00 355.15,20.00 360.51,20.00 365.86,20.00 371.21,20.00 376.57,20.00 381.92,20.00 387.27,20.00 392.63,20.00 397.98,20.00 403.33,20.00 408.69,20.00 414.04,20.00 419.39,20.00 424.75,20.00 430.10,20.00 435.45,20.00 440.81,20.00 446.16,20.00 451.52,20.00 456.87,20.00 462.22,20.00 467.58,24.12 472.93,31.04 478.28,38.39 483.64,46.12 488.99,54.21 494.34,62.63 499.70,71.34 505.05,80.30 510.40,89.49 515.76,98.86 521.11,108.37 526.46,117.99 531.82,127.68 537.17,137.40 542.53,147.11 547.88,156.77 553.23,166.34 558.59,175.79 563.94,185.07 569.29,194.15 574.65,202.99 580.00,211.56" stroke="green" /><polyline fill="none" points="50.00,211.65 55.35,203.08 60.71,194.24 66.06,185.16 71.41,175.88 76.77,166.44 82.12,156.86 87.47,147.20 92.83,137.49 98.18,127.78 103.54,118.09 108.89,108.46 114.24,98.95 119.60,89.58 124.95,80.39 130.30,71.43 135.66,62.71 141.01,54.29 146.36,46.20 151.72,38.46 157.07,31.11 162.42,24.18 167.78,20.00 173.13,20.00 178.48,20.00 183.84,20.00 189.19,20.00 194.55,20.00 199.90,20.00 205.25,20.00 210.61,20.00 215.96,20.00 221.31,20.00 226.67,20.00 232.02,20.00 237.37,20.00 242.73,20.00 248.08,20.00 253.43,20.00 258.79,20.00 264.14,20.00 269.49,20.00 274.85,20.00 280.20,20.00 285.56,20.00 290.91,24.09 296.26,31.02 301.62,38.36 306.97,46.09 312.32,54.19 317.68,62.60 323.03,71.31 328.38,80.27 333.74,89.46 339.09,98.82 344.44,108.34 349.80,117.96 355.15,127.65 360.51,137.37 365.86,147.08 371.21,156.74 376.57,166.31 381.92,175.76 387.27,185.04 392.63,194.12 397.98,202.96 403.33,211.53 408.69,219.80 414.04,227.72 419.39,235.26 424.75,242.41 430.10,249.12 435.45,250.00 440.81,250.00 446.16,250.00 451.52,250.00 456.87,250.00 462.22,250.00 467.58,250.00 472.93,250.00 478.28,250.00 483.64,250.00 488.99,250.00 494.34,250.00 499.70,250.00 505.05,250.00 510.40,250.00 515.76,250.00 521.11,250.00 526.46,250.00 531.82,250.00 537.17,250.00 542.53,250.00 547.88,250.00 553.23,249.20 558.59,242.50 563.94,235.36 569.29,227.82 574.65,219.90 580.00,211.65" stroke="blue" /><g stroke="black"><line x1="50.00" x2="50.00" y1="250.00" y2="260.00" /><line x1="315.00" x2="315.00" y1="250.00" y2="260.00" /><line x1="580.00" x2="580.00" y1="250.00" y2="260.00" /><line x1="116.25" x2="116.25" y1="250.00" y2="255.00" /><line x1="182.50" x2="182.50" y1="250.00" y2="255.00" /><line x1="248.75" x2="248.75" y1="250.00" y2="255.00" /><line x1="381.25" x2="381.25" y1="250.00" y2="255.00" /><line x1="447.50" x2="447.50" y1="250.00" y2="255.00" /><line x1="513.75" x2="513.75" y1="250.00" y2="255.00" /><g fill="black" font-family="Arial, sans-serif" font-size="10" stroke="none" text-anchor="middle"><text x="50.00" y="270.00">0.00</text><text x="315.00" y="270.00">0.50</text><text x="580.00" y="270.00">1.00</text></g><line x1="50.00" x2="580.00" y1="250.00" y2="250.00" /></g><g stroke="black"><line x1="50.00" x2="40.00" y1="250.00" y2="250.00" /><line x1="50.00" x2="40.00" y1="204.00" y2="204.00" /><line x1="50.00" x2="40.00" y1="158.00" y2="158.00" /><line x1="50.00" x2="40.00" y1="112.00" y2="112.00" /><line x1="50.00" x2="40.00" y1="66.00" y2="66.00" /><line x1="50.00" x2="40.00" y1="20.00" y2="20.00" /><line x1="50.00" x2="45.00" y1="227.00" y2="227.00" /><line x1="50.00" x2="45.00" y1="181.00" y2="181.00" /><line x1="50.00" x2="45.00" y1="135.00" y2="135.00" /><line x1="50.00" x2="45.00" y1="112.00" y2="112.00" /><line x1="50.00" x2="45.00" y1="89.00" y2="89.00" /><line x1="50.00" x2="45.00" y1="66.00" y2="66.00" /><line x1="50.00" x2="45.00" y1="43.00" y2="43.00" /><line x1="50.00" x2="45.00" y1="20.00" y2="20.00" /><g fill="black" font-family="Arial, sans-serif" font-size="10" stroke="none" text-anchor="end"><text x="35.00" y="250.00">0.00</text><text x="35.00" y="204.00">0.20</text><text x="35.00" y="158.00">0.40</text><text x="35.00" y="112.00">0.60</text><text x="35.00" y="66.00">0.80</text><text x="35.00" y="20.00">1.00</text></g><line x1="50.00" x2="50.00" y1="250.00" y2="20.00" /></g></g></svg>