<?xml version="1.0"?>
<svg height="300" version="1.1" width="600" xmlns:xlink="http://www.w3.org/1999/xlink" xmlns="http://www.w3.org/2000/svg"><rect fill="#ff2020" height="20" width="10" x="50.00" y="280.00" /><rect fill="#ff162b" height="20" width="10" x="55.25" y="280.00" /><rect fill="#ff0c36" height="20" width="10" x="60.51" y="280.00" /><rect fill="#ff0241" height="20" width="10" x="65.76" y="280.00" /><rect fill="#ff004c" height="20" width="10" x="71.01" y="280.00" /><rect fill="#ff0058" height="20" width="10" x="76.26" y="280.00" /><rect fill="#ff0064" height="20" width="10" x="81.52" y="280.00" /><rect fill="#ff0070" height="20" width="10" x="86.77" y="280.00" /><rect fill="#ff007c" height="20" width="10" x="92.02" y="280.00" /><rect fill="#ff0089" height="20" width="10" x="97.27" y="280.00" /><rect fill="#ff0095" height="20" width="10" x="102.53" y="280.00" /><rect fill="#ff00a1" height="20" width="10" x="107.78" y="280.00" /><rect fill="#ff00ad" height="20" width="10" x="113.03" y="280.00" /><rect fill="#ff00b8" height="20" width="10" x="118.28" y="280.00" /><rect fill="#f800c4" height="20" width="10" x="123.54" y="280.00" /><rect fill="#ee00cf" height="20" width="10" x="128.79" y="280.00" /><rect fill="#e400da" height="20" width="10" x="134.04" y="280.00" /><rect fill="#da00e4" height="20" width="10" x="139.29" y="280.00" /><rect fill="#cf00ee" height="20" width="10" x="144.55" y="280.00" /><rect fill="#c400f8" height="20" width="10" x="149.80" y="280.00" /><rect fill="#b800ff" height="20" width="10" x="155.05" y="280.00" /><rect fill="#ad00ff" height="20" width="10" x="160.30" y="280.00" /><rect fill="#a100ff" height="20" width="10" x="165.56" y="280.00" /><rect fill="#9500ff" height="20" width="10" x="170.81" y="280.00" /><rect fill="#8900ff" height="20" width="10" x="176.06" y="280.00" /><rect fill="#7c00ff" height="20" width="10" x="181.31" y="280.00" /><rect fill="#7000ff" height="20" width="10" x="186.57" y="280.00" /><rect fill="#7000ff" height="20" width="10" x="191.82" y="280.00" /><rect fill="#5800ff" height="20" width="10" x="197.07" y="280.00" /><rect fill="#4d00ff" height="20" width="10" x="202.32" y="280.00" /><rect fill="#4102ff" height="20" width="10" x="207.58" y="280.00" /><rect fill="#360cff" height="20" width="10" x="212.83" y="280.00" /><rect fill="#2b16ff" height="20" width="10" x="218.08" y="280.00" /><rect fill="#2020ff" height="20" width="10" x="223.33" y="280.00" /><rect fill="#162bff" height="20" width="10" x="228.59" y="280.00" /><rect fill="#0c36ff" height="20" width="10" x="233.84" y="280.00" /><rect fill="#0241ff" height="20" width="10" x="239.09" y="280.00" /><rect fill="#004cff" height="20" width="10" x="244.34" y="280.00" /><rect fill="#0058ff" height="20" width="10" x="249.60" y="280.00" /><rect fill="#0064ff" height="20" width="10" x="254.85" y="280.00" /><rect fill="#0070ff" height="20" width="10" x="260.10" y="280.00" /><rect fill="#007cff" height="20" width="10" x="265.35" y="280.00" /><rect fill="#0089ff" height="20" width="10" x="270.61" y="280.00" /><rect fill="#0095ff" height="20" width="10" x="275.86" y="280.00" /><rect fill="#00a1ff" height="20" width="10" x="281.11" y="280.00" /><rect fill="#00adff" height="20" width="10" x="286.36" y="280.00" /><rect fill="#00b8ff" height="20" width="10" x="291.62" y="280.00" /><rect fill="#00c4f8" height="20" width="10" x="296.87" y="280.00" /><rect fill="#00cfef" height="20" width="10" x="302.12" y="280.00" /><rect fill="#00dae4" height="20" width="10" x="307.37" y="280.00" /><rect fill="#00e4da" height="20" width="10" x="312.63" y="280.00" /><rect fill="#00eecf" height="20" width="10" x="317.88" y="280.00" /><rect fill="#00f8c4" height="20" width="10" x="323.13" y="280.00" /><rect fill="#00ffb8" height="20" width="10" x="328.38" y="280.00" /><rect fill="#00ffb8" height="20" width="10" x="333.64" y="280.00" /><rect fill="#00ffa1" height="20" width="10" x="338.89" y="280.00" /><rect fill="#00ff95" height="20" width="10" x="344.14" y="280.00" /><rect fill="#00ff89" height="20" width="10" x="349.39" y="280.00" /><rect fill="#00ff7d" height="20" width="10" x="354.65" y="280.00" /><rect fill="#00ff7d" height="20" width="10" x="359.90" y="280.00" /><rect fill="#00ff64" height="20" width="10" x="365.15" y="280.00" /><rect fill="#00ff58" height="20" width="10" x="370.40" y="280.00" /><rect fill="#00ff4d" height="20" width="10" x="375.66" y="280.00" /><rect fill="#02ff41" height="20" width="10" x="380.91" y="280.00" /><rect fill="#0cff36" height="20" width="10" x="386.16" y="280.00" /><rect fill="#16ff2b" height="20" width="10" x="391.41" y="280.00" /><rect fill="#20ff20" height="20" width="10" x="396.67" y="280.00" /><rect fill="#2bff16" height="20" width="10" x="401.92" y="280.00" /><rect fill="#36ff0c" height="20" width="10" x="407.17" y="280.00" /><rect fill="#41ff02" height="20" width="10" x="412.42" y="280.00" /><rect fill="#4dff00" height="20" width="10" x="417.68" y="280.00" /><rect fill="#58ff00" height="20" width="10" x="422.93" y="280.00" /><rect fill="#64ff00" height="20" width="10" x="428.18" y="280.00" /><rect fill="#70ff00" height="20" width="10" x="433.43" y="280.00" /><rect fill="#7cff00" height="20" width="10" x="438.69" y="280.00" /><rect fill="#89ff00" height="20" width="10" x="443.94" y="280.00" /><rect fill="#95ff00" height="20" width="10" x="449.19" y="280.00" /><rect fill="#a1ff00" height="20" width="10" x="454.44" y="280.00" /><rect fill="#adff00" height="20" width="10" x="459.70" y="280.00" /><rect fill="#b8ff00" height="20" width="10" x="464.95" y="280.00" /><rect fill="#c4f800" height="20" width="10" x="470.20" y="280.00" /><rect fill="#cfee00" height="20" width="10" x="475.45" y="280.00" /><rect fill="#dae400" height="20" width="10" x="480.71" y="280.00" /><rect fill="#e4da00" height="20" width="10" x="485.96" y="280.00" /><rect fill="#eecf00" height="20" width="10" x="491.21" y="280.00" /><rect fill="#f8c400" height="20" width="10" x="496.46" y="280.00" /><rect fill="#ffb800" height="20" width="10" x="501.72" y="280.00" /><rect fill="#ffad00" height="20" width="10" x="506.97" y="280.00" /><rect fill="#ffa100" height="20" width="10" x="512.22" y="280.00" /><rect fill="#ff9500" height="20" width="10" x="517.47" y="280.00" /><rect fill="#ff8900" height="20" width="10" x="522.73" y="280.00" /><rect fill="#ff7d00" height="20" width="10" x="527.98" y="280.00" /><rect fill="#ff7000" height="20" width="10" x="533.23" y="280.00" /><rect fill="#ff6400" height="20" width="10" x="538.48" y="280.00" /><rect fill="#ff5800" height="20" width="10" x="543.74" y="280.00" /><rect fill="#ff4d00" height="20" width="10" x="548.99" y="280.00" /><rect fill="#ff4102" height="20" width="10" x="554.24" y="280.00" /><rect fill="#ff360c" height="20" width="10" x="559.49" y="280.00" /><rect fill="#ff2b15" height="20" width="10" x="564.75" y="280.00" /><rect fill="#ff2020" height="20" width="10" x="570.00" y="280.00" /><g><g stroke-dasharray="1 1" stroke="#ccc"><line x1="116.25" x2="116.25" y1="250.00" y2="20.00" /><line x1="182.50" x2="182.50" y1="250.00" y2="20.00" /><line x1="248.75" x2="248.75" y1="250.00" y2="20.00" /><line x1="381.25" x2="381.25" y1="250.00" y2="20.00" /><line x1="447.50" x2="447.50" y1="250.00" y2="20.00" /><line x1="513.75" x2="513.75" y1="250.00" y2="20.00" /><line x1="50.00" x2="50.00" y1="250.00" y2="20.00" /><line x1="315.00" x2="315.00" y1="250.00" y2="20.00" /><line x1="580.00" x2="580.00" y1="250.00" y2="20.00" /><line x1="50.00" x2="580.00" y1="227.00" y2="227.00" /><line x1="50.00" x2="580.00" y1="181.00" y2="181.00" /><line x1="50.00" x2="580.00" y1="135.00" y2="135.00" /><line x1="50.00" x2="580.00" y1="112.00" y2="112.00" /><line x1="50.00" x2="580.00" y1="89.00" y2="89.00" /><line x1="50.00" x2="580.00" y1="66.00" y2="66.00" /><line x1="50.00" x2="580.00" y1="43.00" y2="43.00" /><line x1="50.00" x2="580.00" y1="20.00" y2="20.00" /><line x1="50.00" x2="580.00" y1="250.00" y2="250.00" /><line x1="50.00" x2="580.00" y1="204.00" y2="204.00" /><line x1="50.00" x2="580.00" y1="158.00" y2="158.00" /><line x1="50.00" x2="580.00" y1="112.00" y2="112.00" /><line x1="50.00" x2="580.00" y1="66.00" y2="66.00" /><line x1="50.00" x2="580.00" y1="20.00" y2="20.00" /></g><polyline fill="none" points="50.00,20.00 55.35,20.00 60.71,20.00 66.06,20.00 71.41,20.00 76.77,20.00 82.12,20.00 87.47,20.00 92.83,20.00 98.18,20.00 103.54,20.00 108.89,20.00 114.24,20.00 119.60,20.00 124.95,26.23 130.30,34.94 135.66,44.05 141.01,53.53 146.36,63.34 151.72,73.44 157.07,83.78 162.42,94.33 167.78,105.05 173.13,115.88 178.48,126.79 183.84,137.74 189.19,148.67 194.55,159.55 199.90,170.33 205.25,180.97 210.61,191.42 215.96,201.64 221.31,211.60 226.67,221.25 232.02,230.55 237.37,239.47 242.73,247.96 248.08,250.00 253.43,250.00 258.79,250.00 264.14,250.00 269.49,250.00 274.85,250.00 280.20,250.00 285.56,250.00 290.91,250.00 296.26,250.00 301.62,250.00 306.97,250.00 312.32,250.00 317.68,250.00 323.03,250.00 328.38,250.00 333.74,250.00 339.09,250.00 344.44,250.00 349.80,250.00 355.15,250.00 360.51,250.00 365.86,250.00 371.21,250.00 376.57,250.00 381.92,250.00 387.27,247.96 392.63,239.47 397.98,230.55 403.33,221.25 408.69,211.60 414.04,201.64 419.39,191.42 424.75,180.97 430.10,170.33 435.45,159.55 440.81,148.67 446.16,137.74 451.52,126.79 456.87,115.88 462.22,105.05 467.58,94.33 472.93,83.78 478.28,73.44 483.64,63.34 488.99,53.53 494.34,44.05 499.70,34.94 505.05,26.23 510.40,20.00 515.76,20.00 521.11,20.00 526.46,20.00 531.82,20.00 537.17,20.00 542.53,20.00 547.88,20.00 553.23,20.00 558.59,20.00 563.94,20.00 569.29,20.00 574.65,20.00 580.00,20.00" stroke="red" /><polyline fill="none" points="50.00,221.22 55.35,230.52 60.71,239.44 66.06,247.94 71.41,250.00 76.77,250.00 82.12,250.00 87.47,250.00 92.83,250.00 98.18,250.00 103.54,250.00 108.89,250.00 114.24,250.00 119.60,250.00 124.95,250.00 130.30,250.00 135.66,250.00 141.01,250.00 146.36,250.00 151.72,250.00 157.07,250.00 162.42,250.00 167.78,250.00 173.13,250.00 178.48,250.00 183.84,250.00 189.19,250.00 194.55,250.00 199.90,250.00 205.25,250.00 210.61,247.99 215.96,239.50 221.31,230.58 226.67,221.28 232.02,211.63 237.37,201.68 242.73,191.45 248.08,181.00 253.43,170.36 258.79,159.59 264.14,148.71 269.49,137.77 274.85,126.83 280.20,115.92 285.56,105.08 290.91,94.37 296.26,83.82 301.62,73.47 306.97,63.37 312.32,53.57 317.68,44.08 323.03,34.97 328.38,26.26 333.74,20.00 339.09,20.00 344.44,20.00 349.80,20.00 355.15,20.00 360.51,20.00 365.86,20.00 371.21,20.00 376.57,20.00 381.92,20.00 387.27,20.00 392.63,20.00 397.98,20.00 403.33,20.00 408.69,20.00 414.04,20.00 419.39,20.00 424.75,20.00 430.10,20.00 435.45,20.00 440.81,20.00 446.16,20.00 451.52,20.00 456.87,20.00 462.22,20.00 467.58,20.00 472.93,20.00 478.28,26.20 483.64,34.91 488.99,44.02 494.34,53.50 499.70,63.31 505.05,73.40 510.40,83.75 515.76,94.30 521.11,105.01 526.46,115.84 531.82,126.76 537.17,137.70 542.53,148.63 547.88,159.51 553.23,170.29 558.59,180.93 563.94,191.39 569.29,201.61 574.65,211.57 580.00,221.22" stroke="green" /><polyline fill="none" points="50.00,221.31 55.35,211.67 60.71,201.71 66.06,191.49 71.41,181.04 76.77,170.40 82.12,159.62 87.47,148.74 92.83,137.81 98.18,126.86 103.54,115.95 108.89,105.12 114.24,94.40 119.60,83.85 124.95,73.50 130.30,63.41 135.66,53.60 141.01,44.12 146.36,35.00 151.72,26.29 157.07,20.00 162.42,20.00 167.78,20.00 173.13,20.00 178.48,20.00 183.84,20.00 189.19,20.00 194.55,20.00 199.90,20.00 205.25,20.00 210.61,20.00 215.96,20.00 221.31,20.00 226.67,20.00 232.02,20.00 237.37,20.00 242.73,20.00 248.08,20.00 253.43,20.00 258.79,20.00 264.14,20.00 269.49,20.00 274.85,20.00 280.20,20.00 285.56,20.00 290.91,20.00 296.26,20.00 301.62,26.17 306.97,34.88 312.32,43.99 317.68,53.47 323.03,63.28 328.38,73.37 333.74,83.71 339.09,94.26 344.44,104.97 349.80,115.81 355.15,126.72 360.51,137.66 365.86,148.60 371.21,159.48 376.57,170.26 381.92,180.90 387.27,191.35 392.63,201.58 397.98,211.54 403.33,221.19 408.69,230.49 414.04,239.41 419.39,247.91 424.75,250.00 430.10,250.00 435.45,250.00 440.81,250.00 446.16,250.00 451.52,250.00 456.87,250.00 462.22,250.00 467.58,250.00 472.93,250.00 478.28,250.00 483.64,250.00 488.99,250.00 494.34,250.00 499.70,250.00 505.05,250.00 510.40,250.00 515.76,250.00 521.11,250.00 526.46,250.00 531.82,250.00 537.17,250.00 542.53,250.00 547.88,250.00 553.23,250.00 558.59,250.00 563.94,248.02 569.29,239.53 574.65,230.61 580.00,221.31" stroke="blue" /><g stroke="black"><line x1="50.00" x2="50.00" y1="250.00" y2="260.00" /><line x1="315.00" x2="315.00" y1="250.00" y2="260.00" /><line x1="580.00" x2="580.00" y1="250.00" y2="260.00" /><line x1="116.25" x2="116.25" y1="250.00" y2="255.00" /><line x1="182.50" x2="182.50" y1="250.00" y2="255.00" /><line x1="248.75" x2="248.75" y1="250.00" y2="255.00" /><line x1="381.25" x2="381.25" y1="250.00" y2="255.00" /><line x1="447.50" x2="447.50" y1="250.00" y2="255.00" /><line x1="513.75" x2="513.75" y1="250.00" y2="255.00" /><g fill="black" font-family="Arial, sans-serif" font-size="10" stroke="none" text-anchor="middle"><text x="50.00" y="270.00">0.00</text><text x="315.00" y="270.00">0.50</text><text x="580.00" y="270.00">1.00</text></g><line x1="50.00" x2="580.00" y1="250.00" y2="250.00" /></g><g stroke="black"><line x1="50.00" x2="40.00" y1="250.00" y2="250.00" /><line x1="50.00" x2="40.00" y1="204.00" y2="204.00" /><line x1="50.00" x2="40.00" y1="158.00" y2="158.00" /><line x1="50.00" x2="40.00" y1="112.00" y2="112.00" /><line x1="50.00" x2="40.00" y1="66.00" y2="66.00" /><line x1="50.00" x2="40.00" y1="20.00" y2="20.00" /><line x1="50.00" x2="45.00" y1="227.00" y2="227.00" /><line x1="50.00" x2="45.00" y1="181.00" y2="181.00" /><line x1="50.00" x2="45.00" y1="135.00" y2="135.00" /><line x1="50.00" x2="45.00" y1="112.00" y2="112.00" /><line x1="50.00" x2="45.00" y1="89.00" y2="89.00" /><line x1="50.00" x2="45.00" y1="66.00" y2="66.00" /><line x1="50.00" x2="45.00" y1="43.00" y2="43.00" /><line x1="50.00" x2="45.00" y1="20.00" y2="20.00" /><g fill="black" font-family="Arial, sans-serif" font-size="10" stroke="none" text-anchor="end"><text x="35.00" y="250.00">0.00</text><text x="35.00" y="204.00">0.20</text><text x="35.00" y="158.00">0.40</text><text x="35.00" y="112.00">0.60</text><text x="35.00" y="66.00">0.80</text><text x="35.00" y="20.00">1.00</text></g><line x1="50.00" x2="50.00" y1="250.00" y2="20.00" /></g></g></svg>