<?xml version="1.0"?>
<svg height="300" version="1.1" width="600" xmlns:xlink="http://www.w3.org/1999/xlink" xmlns="http://www.w3.org/2000/svg"><rect fill="#ffff00" height="20" width="10" x="50.00" y="280.00" /><rect fill="#ffff00" height="20" width="10" x="55.25" y="280.00" /><rect fill="#ffff00" height="20" width="10" x="60.51" y="280.00" /><rect fill="#fffe00" height="20" width="10" x="65.76" y="280.00" /><rect fill="#fffe00" height="20" width="10" x="71.01" y="280.00" /><rect fill="#fffd00" height="20" width="10" x="76.26" y="280.00" /><rect fill="#fffd00" height="20" width="10" x="81.52" y="280.00" /><rect fill="#fffc00" height="20" width="10" x="86.77" y="280.00" /><rect fill="#fffb00" height="20" width="10" x="92.02" y="280.00" /><rect fill="#fffa00" height="20" width="10" x="97.27" y="280.00" /><rect fill="#fff900" height="20" width="10" x="102.53" y="280.00" /><rect fill="#fff700" height="20" width="10" x="107.78" y="280.00" /><rect fill="#fff600" height="20" width="10" x="113.03" y="280.00" /><rect fill="#fff400" height="20" width="10" x="118.28" y="280.00" /><rect fill="#fef300" height="20" width="10" x="123.54" y="280.00" /><rect fill="#fef100" height="20" width="10" x="128.79" y="280.00" /><rect fill="#feef00" height="20" width="10" x="134.04" y="280.00" /><rect fill="#feed00" height="20" width="10" x="139.29" y="280.00" /><rect fill="#feeb00" height="20" width="10" x="144.55" y="280.00" /><rect fill="#fee900" height="20" width="10" x="149.80" y="280.00" /><rect fill="#fee600" height="20" width="10" x="155.05" y="280.00" /><rect fill="#fee400" height="20" width="10" x="160.30" y="280.00" /><rect fill="#fee100" height="20" width="10" x="165.56" y="280.00" /><rect fill="#fedf00" height="20" width="10" x="170.81" y="280.00" /><rect fill="#fedc00" height="20" width="10" x="176.06" y="280.00" /><rect fill="#fdd900" height="20" width="10" x="181.31" y="280.00" /><rect fill="#fdd600" height="20" width="10" x="186.57" y="280.00" /><rect fill="#fdd600" height="20" width="10" x="191.82" y="280.00" /><rect fill="#fdd000" height="20" width="10" x="197.07" y="280.00" /><rect fill="#fdcd00" height="20" width="10" x="202.32" y="280.00" /><rect fill="#fdc900" height="20" width="10" x="207.58" y="280.00" /><rect fill="#fdc600" height="20" width="10" x="212.83" y="280.00" /><rect fill="#fcc300" height="20" width="10" x="218.08" y="280.00" /><rect fill="#fcbf00" height="20" width="10" x="223.33" y="280.00" /><rect fill="#fcbc00" height="20" width="10" x="228.59" y="280.00" /><rect fill="#fcb800" height="20" width="10" x="233.84" y="280.00" /><rect fill="#fcb400" height="20" width="10" x="239.09" y="280.00" /><rect fill="#fcb100" height="20" width="10" x="244.34" y="280.00" /><rect fill="#fbad00" height="20" width="10" x="249.60" y="280.00" /><rect fill="#fba900" height="20" width="10" x="254.85" y="280.00" /><rect fill="#fba500" height="20" width="10" x="260.10" y="280.00" /><rect fill="#fba100" height="20" width="10" x="265.35" y="280.00" /><rect fill="#fa9e00" height="20" width="10" x="270.61" y="280.00" /><rect fill="#fa9a00" height="20" width="10" x="275.86" y="280.00" /><rect fill="#fa9600" height="20" width="10" x="281.11" y="280.00" /><rect fill="#fa9200" height="20" width="10" x="286.36" y="280.00" /><rect fill="#fa8e00" height="20" width="10" x="291.62" y="280.00" /><rect fill="#f98a00" height="20" width="10" x="296.87" y="280.00" /><rect fill="#f98600" height="20" width="10" x="302.12" y="280.00" /><rect fill="#f98200" height="20" width="10" x="307.37" y="280.00" /><rect fill="#f97d00" height="20" width="10" x="312.63" y="280.00" /><rect fill="#f87900" height="20" width="10" x="317.88" y="280.00" /><rect fill="#f87500" height="20" width="10" x="323.13" y="280.00" /><rect fill="#f87100" height="20" width="10" x="328.38" y="280.00" /><rect fill="#f87100" height="20" width="10" x="333.64" y="280.00" /><rect fill="#f76900" height="20" width="10" x="338.89" y="280.00" /><rect fill="#f76500" height="20" width="10" x="344.14" y="280.00" /><rect fill="#f76100" height="20" width="10" x="349.39" y="280.00" /><rect fill="#f65e00" height="20" width="10" x="354.65" y="280.00" /><rect fill="#f65e00" height="20" width="10" x="359.90" y="280.00" /><rect fill="#f65600" height="20" width="10" x="365.15" y="280.00" /><rect fill="#f65200" height="20" width="10" x="370.40" y="280.00" /><rect fill="#f54e00" height="20" width="10" x="375.66" y="280.00" /><rect fill="#f54b00" height="20" width="10" x="380.91" y="280.00" /><rect fill="#f54700" height="20" width="10" x="386.16" y="280.00" /><rect fill="#f44300" height="20" width="10" x="391.41" y="280.00" /><rect fill="#f44000" height="20" width="10" x="396.67" y="280.00" /><rect fill="#f43c00" height="20" width="10" x="401.92" y="280.00" /><rect fill="#f33900" height="20" width="10" x="407.17" y="280.00" /><rect fill="#f33600" height="20" width="10" x="412.42" y="280.00" /><rect fill="#f33200" height="20" width="10" x="417.68" y="280.00" /><rect fill="#f22f00" height="20" width="10" x="422.93" y="280.00" /><rect fill="#f22c00" height="20" width="10" x="428.18" y="280.00" /><rect fill="#f22900" height="20" width="10" x="433.43" y="280.00" /><rect fill="#f12600" height="20" width="10" x="438.69" y="280.00" /><rect fill="#f12300" height="20" width="10" x="443.94" y="280.00" /><rect fill="#f02000" height="20" width="10" x="449.19" y="280.00" /><rect fill="#f01e00" height="20" width="10" x="454.44" y="280.00" /><rect fill="#f01b00" height="20" width="10" x="459.70" y="280.00" /><rect fill="#ef1900" height="20" width="10" x="464.95" y="280.00" /><rect fill="#ef1600" height="20" width="10" x="470.20" y="280.00" /><rect fill="#ef1400" height="20" width="10" x="475.45" y="280.00" /><rect fill="#ee1200" height="20" width="10" x="480.71" y="280.00" /><rect fill="#ee1000" height="20" width="10" x="485.96" y="280.00" /><rect fill="#ed0e00" height="20" width="10" x="491.21" y="280.00" /><rect fill="#ed0c00" height="20" width="10" x="496.46" y="280.00" /><rect fill="#ec0b00" height="20" width="10" x="501.72" y="280.00" /><rect fill="#ec0900" height="20" width="10" x="506.97" y="280.00" /><rect fill="#ec0800" height="20" width="10" x="512.22" y="280.00" /><rect fill="#eb0600" height="20" width="10" x="517.47" y="280.00" /><rect fill="#eb0500" height="20" width="10" x="522.73" y="280.00" /><rect fill="#ea0400" height="20" width="10" x="527.98" y="280.00" /><rect fill="#ea0300" height="20" width="10" x="533.23" y="280.00" /><rect fill="#e90200" height="20" width="10" x="538.48" y="280.00" /><rect fill="#e90200" height="20" width="10" x="543.74" y="280.00" /><rect fill="#e90100" height="20" width="10" x="548.99" y="280.00" /><rect fill="#e80100" height="20" width="10" x="554.24" y="280.00" /><rect fill="#e80000" height="20" width="10" x="559.49" y="280.00" /><rect fill="#e70000" height="20" width="10" x="564.75" y="280.00" /><rect fill="#e70000" height="20" width="10" x="570.00" y="280.00" /><g><g stroke-dasharray="1 1" stroke="#ccc"><line x1="116.25" x2="116.25" y1="250.00" y2="20.00" /><line x1="182.50" x2="182.50" y1="250.00" y2="20.00" /><line x1="248.75" x2="248.75" y1="250.00" y2="20.00" /><line x1="381.25" x2="381.25" y1="250.00" y2="20.00" /><line x1="447.50" x2="447.50" y1="250.00" y2="20.00" /><line x1="513.75" x2="513.75" y1="250.00" y2="20.00" /><line x1="50.00" x2="50.00" y1="250.00" y2="20.00" /><line x1="315.00" x2="315.00" y1="250.00" y2="20.00" /><line x1="580.00" x2="580.00" y1="250.00" y2="20.00" /><line x1="50.00" x2="580.00" y1="227.00" y2="227.00" /><line x1="50.00" x2="580.00" y1="181.00" y2="181.00" /><line x1="50.00" x2="580.00" y1="135.00" y2="135.00" /><line x1="50.00" x2="580.00" y1="112.00" y2="112.00" /><line x1="50.00" x2="580.00" y1="89.00" y2="89.00" /><line x1="50.00" x2="580.00" y1="66.00" y2="66.00" /><line x1="50.00" x2="580.00" y1="43.00" y2="43.00" /><line x1="50.00" x2="580.00" y1="20.00" y2="20.00" /><line x1="50.00" x2="580.00" y1="250.00" y2="250.00" /><line x1="50.00" x2="580.00" y1="204.00" y2="204.00" /><line x1="50.00" x2="580.00" y1="158.00" y2="158.00" /><line x1="50.00" x2="580.00" y1="112.00" y2="112.00" /><line x1="50.00" x2="580.00" y1="66.00" y2="66.00" /><line x1="50.00" x2="580.00" y1="20.00" y2="20.00" /></g><polyline fill="none" points="50.00,20.00 55.35,20.00 60.71,20.01 66.06,20.02 71.41,20.04 76.77,20.06 82.12,20.08 87.47,20.11 92.83,20.15 98.18,20.19 103.54,20.23 108.89,20.28 114.24,20.33 119.60,20.39 124.95,20.45 130.30,20.52 135.66,20.59 141.01,20.67 146.36,20.75 151.72,20.84 157.07,20.93 162.42,21.02 167.78,21.12 173.13,21.22 178.48,21.33 183.84,21.44 189.19,21.56 194.55,21.68 199.90,21.81 205.25,21.94 210.61,22.08 215.96,22.22 221.31,22.36 226.67,22.51 232.02,22.67 237.37,22.83 242.73,22.99 248.08,23.16 253.43,23.33 258.79,23.50 264.14,23.69 269.49,23.87 274.85,24.06 280.20,24.26 285.56,24.45 290.91,24.66 296.26,24.87 301.62,25.08 306.97,25.30 312.32,25.52 317.68,25.74 323.03,25.97 328.38,26.21 333.74,26.44 339.09,26.69 344.44,26.94 349.80,27.19 355.15,27.44 360.51,27.70 365.86,27.97 371.21,28.24 376.57,28.51 381.92,28.79 387.27,29.07 392.63,29.36 397.98,29.65 403.33,29.94 408.69,30.24 414.04,30.54 419.39,30.85 424.75,31.16 430.10,31.48 435.45,31.80 440.81,32.12 446.16,32.45 451.52,32.78 456.87,33.12 462.22,33.46 467.58,33.81 472.93,34.15 478.28,34.51 483.64,34.86 488.99,35.23 494.34,35.59 499.70,35.96 505.05,36.33 510.40,36.71 515.76,37.09 521.11,37.47 526.46,37.86 531.82,38.26 537.17,38.65 542.53,39.05 547.88,39.46 553.23,39.87 558.59,40.28 563.94,40.69 569.29,41.11 574.65,41.54 580.00,41.96" stroke="red" /><polyline fill="none" points="50.00,20.00 55.35,20.06 60.71,20.23 66.06,20.52 71.41,20.93 76.77,21.44 82.12,22.08 87.47,22.83 92.83,23.69 98.18,24.66 103.54,25.74 108.89,26.94 114.24,28.24 119.60,29.65 124.95,31.16 130.30,32.78 135.66,34.51 141.01,36.33 146.36,38.26 151.72,40.28 157.07,42.39 162.42,44.60 167.78,46.90 173.13,49.29 178.48,51.77 183.84,54.33 189.19,56.97 194.55,59.69 199.90,62.49 205.25,65.35 210.61,68.29 215.96,71.30 221.31,74.37 226.67,77.50 232.02,80.69 237.37,83.93 242.73,87.23 248.08,90.57 253.43,93.96 258.79,97.39 264.14,100.85 269.49,104.36 274.85,107.89 280.20,111.45 285.56,115.03 290.91,118.63 296.26,122.25 301.62,125.89 306.97,129.53 312.32,133.18 317.68,136.82 323.03,140.47 328.38,144.11 333.74,147.75 339.09,151.37 344.44,154.97 349.80,158.55 355.15,162.11 360.51,165.64 365.86,169.15 371.21,172.61 376.57,176.04 381.92,179.43 387.27,182.77 392.63,186.07 397.98,189.31 403.33,192.50 408.69,195.63 414.04,198.70 419.39,201.71 424.75,204.65 430.10,207.51 435.45,210.31 440.81,213.03 446.16,215.67 451.52,218.23 456.87,220.71 462.22,223.10 467.58,225.40 472.93,227.61 478.28,229.72 483.64,231.74 488.99,233.67 494.34,235.49 499.70,237.22 505.05,238.84 510.40,240.35 515.76,241.76 521.11,243.06 526.46,244.26 531.82,245.34 537.17,246.31 542.53,247.17 547.88,247.92 553.23,248.56 558.59,249.07 563.94,249.48 569.29,249.77 574.65,249.94 580.00,250.00" stroke="green" /><polyline fill="none" points="50.00,250.00 55.35,250.00 60.71,250.00 66.06,250.00 71.41,250.00 76.77,250.00 82.12,250.00 87.47,250.00 92.83,250.00 98.18,250.00 103.54,250.00 108.89,250.00 114.24,250.00 119.60,250.00 124.95,250.00 130.30,250.00 135.66,250.00 141.01,250.00 146.36,250.00 151.72,250.00 157.07,250.00 162.42,250.00 167.78,250.00 173.13,250.00 178.48,250.00 183.84,250.00 189.19,250.00 194.55,250.00 199.90,250.00 205.25,250.00 210.61,250.00 215.96,250.00 221.31,250.00 226.67,250.00 232.02,250.00 237.37,250.00 242.73,250.00 248.08,250.00 253.43,250.00 258.79,250.00 264.14,250.00 269.49,250.00 274.85,250.00 280.20,250.00 285.56,250.00 290.91,250.00 296.26,250.00 301.62,250.00 306.97,250.00 312.32,250.00 317.68,250.00 323.03,250.00 328.38,250.00 333.74,250.00 339.09,250.00 344.44,250.00 349.80,250.00 355.15,250.00 360.51,250.00 365.86,250.00 371.21,250.00 376.57,250.00 381.92,250.00 387.27,250.00 392.63,250.00 397.98,250.00 403.33,250.00 408.69,250.00 414.04,250.00 419.39,250.00 424.75,250.00 430.10,250.00 435.45,250.00 440.81,250.00 446.16,250.00 451.52,250.00 456.87,250.00 462.22,250.00 467.58,250.00 472.93,250.00 478.28,250.00 483.64,250.00 488.99,250.00 494.34,250.00 499.70,250.00 505.05,250.00 510.40,250.00 515.76,250.00 521.11,250.00 526.46,250.00 531.82,250.00 537.17,250.00 542.53,250.00 547.88,250.00 553.23,250.00 558.59,250.00 563.94,250.00 569.29,250.00 574.65,250.00 580.00,250.00" stroke="blue" /><g stroke="black"><line x1="50.00" x2="50.00" y1="250.00" y2="260.00" /><line x1="315.00" x2="315.00" y1="250.00" y2="260.00" /><line x1="580.00" x2="580.00" y1="250.00" y2="260.00" /><line x1="116.25" x2="116.25" y1="250.00" y2="255.00" /><line x1="182.50" x2="182.50" y1="250.00" y2="255.00" /><line x1="248.75" x2="248.75" y1="250.00" y2="255.00" /><line x1="381.25" x2="381.25" y1="250.00" y2="255.00" /><line x1="447.50" x2="447.50" y1="250.00" y2="255.00" /><line x1="513.75" x2="513.75" y1="250.00" y2="255.00" /><g fill="black" font-family="Arial, sans-serif" font-size="10" stroke="none" text-anchor="middle"><text x="50.00" y="270.00">0.00</text><text x="315.00" y="270.00">0.50</text><text x="580.00" y="270.00">1.00</text></g><line x1="50.00" x2="580.00" y1="250.00" y2="250.00" /></g><g stroke="black"><line x1="50.00" x2="40.00" y1="250.00" y2="250.00" /><line x1="50.00" x2="40.00" y1="204.00" y2="204.00" /><line x1="50.00" x2="40.00" y1="158.00" y2="158.00" /><line x1="50.00" x2="40.00" y1="112.00" y2="112.00" /><line x1="50.00" x2="40.00" y1="66.00" y2="66.00" /><line x1="50.00" x2="40.00" y1="20.00" y2="20.00" /><line x1="50.00" x2="45.00" y1="227.00" y2="227.00" /><line x1="50.00" x2="45.00" y1="181.00" y2="181.00" /><line x1="50.00" x2="45.00" y1="135.00" y2="135.00" /><line x1="50.00" x2="45.00" y1="112.00" y2="112.00" /><line x1="50.00" x2="45.00" y1="89.00" y2="89.00" /><line x1="50.00" x2="45.00" y1="66.00" y2="66.00" /><line x1="50.00" x2="45.00" y1="43.00" y2="43.00" /><line x1="50.00" x2="45.00" y1="20.00" y2="20.00" /><g fill="black" font-family="Arial, sans-serif" font-size="10" stroke="none" text-anchor="end"><text x="35.00" y="250.00">0.00</text><text x="35.00" y="204.00">0.20</text><text x="35.00" y="158.00">0.40</text><text x="35.00" y="112.00">0.60</text><text x="35.00" y="66.00">0.80</text><text x="35.00" y="20.00">1.00</text></g><line x1="50.00" x2="50.00" y1="250.00" y2="20.00" /></g></g></svg>