<?xml version="1.0"?>
<svg height="300" version="1.1" width="600" xmlns:xlink="http://www.w3.org/1999/xlink" xmlns="http://www.w3.org/2000/svg"><rect fill="#ffff03" height="20" width="10" x="50.00" y="280.00" /><rect fill="#fcff05" height="20" width="10" x="55.25" y="280.00" /><rect fill="#f9ff08" height="20" width="10" x="60.51" y="280.00" /><rect fill="#f6ff0a" height="20" width="10" x="65.76" y="280.00" /><rect fill="#f2ff0c" height="20" width="10" x="71.01" y="280.00" /><rect fill="#efff0f" height="20" width="10" x="76.26" y="280.00" /><rect fill="#ecfe11" height="20" width="10" x="81.52" y="280.00" /><rect fill="#e9fe14" height="20" width="10" x="86.77" y="280.00" /><rect fill="#e6fe16" height="20" width="10" x="92.02" y="280.00" /><rect fill="#e3fd19" height="20" width="10" x="97.27" y="280.00" /><rect fill="#dffd1b" height="20" width="10" x="102.53" y="280.00" /><rect fill="#dcfd1e" height="20" width="10" x="107.78" y="280.00" /><rect fill="#d9fc20" height="20" width="10" x="113.03" y="280.00" /><rect fill="#d5fc23" height="20" width="10" x="118.28" y="280.00" /><rect fill="#d2fb26" height="20" width="10" x="123.54" y="280.00" /><rect fill="#cffb28" height="20" width="10" x="128.79" y="280.00" /><rect fill="#cbfa2b" height="20" width="10" x="134.04" y="280.00" /><rect fill="#c8f92d" height="20" width="10" x="139.29" y="280.00" /><rect fill="#c4f930" height="20" width="10" x="144.55" y="280.00" /><rect fill="#c1f833" height="20" width="10" x="149.80" y="280.00" /><rect fill="#bdf735" height="20" width="10" x="155.05" y="280.00" /><rect fill="#baf638" height="20" width="10" x="160.30" y="280.00" /><rect fill="#b6f63b" height="20" width="10" x="165.56" y="280.00" /><rect fill="#b3f53d" height="20" width="10" x="170.81" y="280.00" /><rect fill="#aff440" height="20" width="10" x="176.06" y="280.00" /><rect fill="#acf343" height="20" width="10" x="181.31" y="280.00" /><rect fill="#a8f245" height="20" width="10" x="186.57" y="280.00" /><rect fill="#a8f245" height="20" width="10" x="191.82" y="280.00" /><rect fill="#a1f04b" height="20" width="10" x="197.07" y="280.00" /><rect fill="#9eef4e" height="20" width="10" x="202.32" y="280.00" /><rect fill="#9aee50" height="20" width="10" x="207.58" y="280.00" /><rect fill="#97ec53" height="20" width="10" x="212.83" y="280.00" /><rect fill="#93eb56" height="20" width="10" x="218.08" y="280.00" /><rect fill="#90ea58" height="20" width="10" x="223.33" y="280.00" /><rect fill="#8ce95b" height="20" width="10" x="228.59" y="280.00" /><rect fill="#89e75e" height="20" width="10" x="233.84" y="280.00" /><rect fill="#86e660" height="20" width="10" x="239.09" y="280.00" /><rect fill="#82e563" height="20" width="10" x="244.34" y="280.00" /><rect fill="#7fe366" height="20" width="10" x="249.60" y="280.00" /><rect fill="#7be268" height="20" width="10" x="254.85" y="280.00" /><rect fill="#78e16b" height="20" width="10" x="260.10" y="280.00" /><rect fill="#75df6e" height="20" width="10" x="265.35" y="280.00" /><rect fill="#71de70" height="20" width="10" x="270.61" y="280.00" /><rect fill="#6edc73" height="20" width="10" x="275.86" y="280.00" /><rect fill="#6bda76" height="20" width="10" x="281.11" y="280.00" /><rect fill="#67d978" height="20" width="10" x="286.36" y="280.00" /><rect fill="#64d77b" height="20" width="10" x="291.62" y="280.00" /><rect fill="#61d67d" height="20" width="10" x="296.87" y="280.00" /><rect fill="#5ed480" height="20" width="10" x="302.12" y="280.00" /><rect fill="#5bd283" height="20" width="10" x="307.37" y="280.00" /><rect fill="#58d185" height="20" width="10" x="312.63" y="280.00" /><rect fill="#54cf88" height="20" width="10" x="317.88" y="280.00" /><rect fill="#51cd8a" height="20" width="10" x="323.13" y="280.00" /><rect fill="#4ecb8d" height="20" width="10" x="328.38" y="280.00" /><rect fill="#4ecb8d" height="20" width="10" x="333.64" y="280.00" /><rect fill="#49c891" height="20" width="10" x="338.89" y="280.00" /><rect fill="#46c694" height="20" width="10" x="344.14" y="280.00" /><rect fill="#43c496" height="20" width="10" x="349.39" y="280.00" /><rect fill="#40c299" height="20" width="10" x="354.65" y="280.00" /><rect fill="#40c299" height="20" width="10" x="359.90" y="280.00" /><rect fill="#3bbe9d" height="20" width="10" x="365.15" y="280.00" /><rect fill="#38bca0" height="20" width="10" x="370.40" y="280.00" /><rect fill="#35baa2" height="20" width="10" x="375.66" y="280.00" /><rect fill="#33b8a4" height="20" width="10" x="380.91" y="280.00" /><rect fill="#30b6a6" height="20" width="10" x="386.16" y="280.00" /><rect fill="#2eb4a9" height="20" width="10" x="391.41" y="280.00" /><rect fill="#2cb2ab" height="20" width="10" x="396.67" y="280.00" /><rect fill="#29b0ad" height="20" width="10" x="401.92" y="280.00" /><rect fill="#27aeaf" height="20" width="10" x="407.17" y="280.00" /><rect fill="#25acb1" height="20" width="10" x="412.42" y="280.00" /><rect fill="#22aab3" height="20" width="10" x="417.68" y="280.00" /><rect fill="#20a7b5" height="20" width="10" x="422.93" y="280.00" /><rect fill="#1ea5b7" height="20" width="10" x="428.18" y="280.00" /><rect fill="#1ca3b9" height="20" width="10" x="433.43" y="280.00" /><rect fill="#1aa1bb" height="20" width="10" x="438.69" y="280.00" /><rect fill="#199fbd" height="20" width="10" x="443.94" y="280.00" /><rect fill="#179dbf" height="20" width="10" x="449.19" y="280.00" /><rect fill="#159ac1" height="20" width="10" x="454.44" y="280.00" /><rect fill="#1398c2" height="20" width="10" x="459.70" y="280.00" /><rect fill="#1296c4" height="20" width="10" x="464.95" y="280.00" /><rect fill="#1094c6" height="20" width="10" x="470.20" y="280.00" /><rect fill="#0f92c8" height="20" width="10" x="475.45" y="280.00" /><rect fill="#0d8fc9" height="20" width="10" x="480.71" y="280.00" /><rect fill="#0c8dcb" height="20" width="10" x="485.96" y="280.00" /><rect fill="#0b8bcc" height="20" width="10" x="491.21" y="280.00" /><rect fill="#0989ce" height="20" width="10" x="496.46" y="280.00" /><rect fill="#0886cf" height="20" width="10" x="501.72" y="280.00" /><rect fill="#0784d1" height="20" width="10" x="506.97" y="280.00" /><rect fill="#0682d2" height="20" width="10" x="512.22" y="280.00" /><rect fill="#0580d4" height="20" width="10" x="517.47" y="280.00" /><rect fill="#057dd5" height="20" width="10" x="522.73" y="280.00" /><rect fill="#047bd6" height="20" width="10" x="527.98" y="280.00" /><rect fill="#0379d8" height="20" width="10" x="533.23" y="280.00" /><rect fill="#0277d9" height="20" width="10" x="538.48" y="280.00" /><rect fill="#0274da" height="20" width="10" x="543.74" y="280.00" /><rect fill="#0172db" height="20" width="10" x="548.99" y="280.00" /><rect fill="#0170dc" height="20" width="10" x="554.24" y="280.00" /><rect fill="#016edd" height="20" width="10" x="559.49" y="280.00" /><rect fill="#006bde" height="20" width="10" x="564.75" y="280.00" /><rect fill="#0069df" height="20" width="10" x="570.00" y="280.00" /><g><g stroke-dasharray="1 1" stroke="#ccc"><line x1="116.25" x2="116.25" y1="250.00" y2="20.00" /><line x1="182.50" x2="182.50" y1="250.00" y2="20.00" /><line x1="248.75" x2="248.75" y1="250.00" y2="20.00" /><line x1="381.25" x2="381.25" y1="250.00" y2="20.00" /><line x1="447.50" x2="447.50" y1="250.00" y2="20.00" /><line x1="513.75" x2="513.75" y1="250.00" y2="20.00" /><line x1="50.00" x2="50.00" y1="250.00" y2="20.00" /><line x1="315.00" x2="315.00" y1="250.00" y2="20.00" /><line x1="580.00" x2="580.00" y1="250.00" y2="20.00" /><line x1="50.00" x2="580.00" y1="227.00" y2="227.00" /><line x1="50.00" x2="580.00" y1="181.00" y2="181.00" /><line x1="50.00" x2="580.00" y1="135.00" y2="135.00" /><line x1="50.00" x2="580.00" y1="112.00" y2="112.00" /><line x1="50.00" x2="580.00" y1="89.00" y2="89.00" /><line x1="50.00" x2="580.00" y1="66.00" y2="66.00" /><line x1="50.00" x2="580.00" y1="43.00" y2="43.00" /><line x1="50.00" x2="580.00" y1="20.00" y2="20.00" /><line x1="50.00" x2="580.00" y1="250.00" y2="250.00" /><line x1="50.00" x2="580.00" y1="204.00" y2="204.00" /><line x1="50.00" x2="580.00" y1="158.00" y2="158.00" /><line x1="50.00" x2="580.00" y1="112.00" y2="112.00" /><line x1="50.00" x2="580.00" y1="66.00" y2="66.00" /><line x1="50.00" x2="580.00" y1="20.00" y2="20.00" /></g><polyline fill="none" points="50.00,20.39 55.35,23.08 60.71,25.80 66.06,28.55 71.41,31.34 76.77,34.15 82.12,37.00 87.47,39.87 92.83,42.78 98.18,45.70 103.54,48.66 108.89,51.63 114.24,54.63 119.60,57.64 124.95,60.68 130.30,63.73 135.66,66.81 141.01,69.89 146.36,72.99 151.72,76.10 157.07,79.22 162.42,82.36 167.78,85.50 173.13,88.64 178.48,91.79 183.84,94.95 189.19,98.11 194.55,101.27 199.90,104.43 205.25,107.59 210.61,110.74 215.96,113.89 221.31,117.03 226.67,120.17 232.02,123.30 237.37,126.41 242.73,129.52 248.08,132.61 253.43,135.69 258.79,138.75 264.14,141.80 269.49,144.83 274.85,147.83 280.20,150.82 285.56,153.78 290.91,156.72 296.26,159.64 301.62,162.53 306.97,165.39 312.32,168.22 317.68,171.02 323.03,173.79 328.38,176.53 333.74,179.23 339.09,181.90 344.44,184.53 349.80,187.13 355.15,189.68 360.51,192.20 365.86,194.67 371.21,197.10 376.57,199.49 381.92,201.84 387.27,204.14 392.63,206.39 397.98,208.60 403.33,210.76 408.69,212.87 414.04,214.93 419.39,216.93 424.75,218.89 430.10,220.79 435.45,222.64 440.81,224.44 446.16,226.17 451.52,227.86 456.87,229.48 462.22,231.05 467.58,232.56 472.93,234.01 478.28,235.41 483.64,236.74 488.99,238.01 494.34,239.22 499.70,240.36 505.05,241.45 510.40,242.47 515.76,243.43 521.11,244.32 526.46,245.15 531.82,245.92 537.17,246.62 542.53,247.26 547.88,247.82 553.23,248.33 558.59,248.77 563.94,249.14 569.29,249.44 574.65,249.68 580.00,249.86" stroke="red" /><polyline fill="none" points="50.00,20.00 55.35,20.02 60.71,20.07 66.06,20.16 71.41,20.29 76.77,20.45 82.12,20.64 87.47,20.88 92.83,21.14 98.18,21.45 103.54,21.79 108.89,22.16 114.24,22.57 119.60,23.01 124.95,23.49 130.30,24.00 135.66,24.55 141.01,25.13 146.36,25.75 151.72,26.40 157.07,27.09 162.42,27.80 167.78,28.56 173.13,29.34 178.48,30.16 183.84,31.01 189.19,31.89 194.55,32.80 199.90,33.75 205.25,34.73 210.61,35.74 215.96,36.78 221.31,37.85 226.67,38.95 232.02,40.08 237.37,41.24 242.73,42.43 248.08,43.65 253.43,44.89 258.79,46.17 264.14,47.47 269.49,48.80 274.85,50.16 280.20,51.54 285.56,52.95 290.91,54.38 296.26,55.84 301.62,57.33 306.97,58.83 312.32,60.37 317.68,61.92 323.03,63.50 328.38,65.10 333.74,66.72 339.09,68.36 344.44,70.03 349.80,71.71 355.15,73.42 360.51,75.14 365.86,76.88 371.21,78.64 376.57,80.42 381.92,82.21 387.27,84.02 392.63,85.85 397.98,87.69 403.33,89.55 408.69,91.42 414.04,93.30 419.39,95.20 424.75,97.11 430.10,99.03 435.45,100.97 440.81,102.91 446.16,104.86 451.52,106.83 456.87,108.80 462.22,110.78 467.58,112.76 472.93,114.76 478.28,116.76 483.64,118.76 488.99,120.77 494.34,122.79 499.70,124.81 505.05,126.83 510.40,128.86 515.76,130.88 521.11,132.91 526.46,134.94 531.82,136.97 537.17,139.00 542.53,141.03 547.88,143.05 553.23,145.07 558.59,147.09 563.94,149.11 569.29,151.12 574.65,153.13 580.00,155.13" stroke="green" /><polyline fill="none" points="50.00,247.45 55.35,245.33 60.71,243.19 66.06,241.02 71.41,238.84 76.77,236.64 82.12,234.42 87.47,232.19 92.83,229.93 98.18,227.66 103.54,225.38 108.89,223.08 114.24,220.77 119.60,218.44 124.95,216.11 130.30,213.76 135.66,211.40 141.01,209.03 146.36,206.65 151.72,204.26 157.07,201.86 162.42,199.46 167.78,197.05 173.13,194.63 178.48,192.21 183.84,189.78 189.19,187.36 194.55,184.93 199.90,182.49 205.25,180.06 210.61,177.62 215.96,175.19 221.31,172.75 226.67,170.32 232.02,167.89 237.37,165.47 242.73,163.05 248.08,160.63 253.43,158.22 258.79,155.82 264.14,153.42 269.49,151.03 274.85,148.65 280.20,146.28 285.56,143.91 290.91,141.56 296.26,139.22 301.62,136.90 306.97,134.58 312.32,132.28 317.68,130.00 323.03,127.73 328.38,125.47 333.74,123.24 339.09,121.01 344.44,118.81 349.80,116.63 355.15,114.46 360.51,112.32 365.86,110.19 371.21,108.09 376.57,106.01 381.92,103.95 387.27,101.92 392.63,99.91 397.98,97.92 403.33,95.96 408.69,94.02 414.04,92.11 419.39,90.23 424.75,88.38 430.10,86.55 435.45,84.75 440.81,82.98 446.16,81.24 451.52,79.53 456.87,77.86 462.22,76.21 467.58,74.60 472.93,73.01 478.28,71.46 483.64,69.95 488.99,68.47 494.34,67.02 499.70,65.61 505.05,64.23 510.40,62.89 515.76,61.58 521.11,60.31 526.46,59.08 531.82,57.88 537.17,56.73 542.53,55.61 547.88,54.52 553.23,53.48 558.59,52.48 563.94,51.51 569.29,50.59 574.65,49.70 580.00,48.86" stroke="blue" /><g stroke="black"><line x1="50.00" x2="50.00" y1="250.00" y2="260.00" /><line x1="315.00" x2="315.00" y1="250.00" y2="260.00" /><line x1="580.00" x2="580.00" y1="250.00" y2="260.00" /><line x1="116.25" x2="116.25" y1="250.00" y2="255.00" /><line x1="182.50" x2="182.50" y1="250.00" y2="255.00" /><line x1="248.75" x2="248.75" y1="250.00" y2="255.00" /><line x1="381.25" x2="381.25" y1="250.00" y2="255.00" /><line x1="447.50" x2="447.50" y1="250.00" y2="255.00" /><line x1="513.75" x2="513.75" y1="250.00" y2="255.00" /><g fill="black" font-family="Arial, sans-serif" font-size="10" stroke="none" text-anchor="middle"><text x="50.00" y="270.00">0.00</text><text x="315.00" y="270.00">0.50</text><text x="580.00" y="270.00">1.00</text></g><line x1="50.00" x2="580.00" y1="250.00" y2="250.00" /></g><g stroke="black"><line x1="50.00" x2="40.00" y1="250.00" y2="250.00" /><line x1="50.00" x2="40.00" y1="204.00" y2="204.00" /><line x1="50.00" x2="40.00" y1="158.00" y2="158.00" /><line x1="50.00" x2="40.00" y1="112.00" y2="112.00" /><line x1="50.00" x2="40.00" y1="66.00" y2="66.00" /><line x1="50.00" x2="40.00" y1="20.00" y2="20.00" /><line x1="50.00" x2="45.00" y1="227.00" y2="227.00" /><line x1="50.00" x2="45.00" y1="181.00" y2="181.00" /><line x1="50.00" x2="45.00" y1="135.00" y2="135.00" /><line x1="50.00" x2="45.00" y1="112.00" y2="112.00" /><line x1="50.00" x2="45.00" y1="89.00" y2="89.00" /><line x1="50.00" x2="45.00" y1="66.00" y2="66.00" /><line x1="50.00" x2="45.00" y1="43.00" y2="43.00" /><line x1="50.00" x2="45.00" y1="20.00" y2="20.00" /><g fill="black" font-family="Arial, sans-serif" font-size="10" stroke="none" text-anchor="end"><text x="35.00" y="250.00">0.00</text><text x="35.00" y="204.00">0.20</text><text x="35.00" y="158.00">0.40</text><text x="35.00" y="112.00">0.60</text><text x="35.00" y="66.00">0.80</text><text x="35.00" y="20.00">1.00</text></g><line x1="50.00" x2="50.00" y1="250.00" y2="20.00" /></g></g></svg>